<mxfile host="app.diagrams.net" modified="2024-06-12T13:59:40.006Z" agent="Mozilla/5.0 (Windows NT 10.0; Win64; x64) AppleWebKit/537.36 (KHTML, like Gecko) Chrome/125.0.0.0 Safari/537.36" etag="y76mL9KcEHV0UGfe67JV" version="24.5.3" type="device" pages="2">
  <diagram name="Page-1" id="QQANALmWlzXZzrpT9xZm">
    <mxGraphModel dx="1833" dy="1012" grid="0" gridSize="10" guides="1" tooltips="1" connect="1" arrows="1" fold="1" page="1" pageScale="1" pageWidth="1100" pageHeight="850" background="none" math="0" shadow="0">
      <root>
        <mxCell id="0" />
        <mxCell id="1" parent="0" />
        <mxCell id="JwSFWweBYgGYqfRGrPw3-4" value="" style="sketch=0;outlineConnect=0;fontColor=#232F3E;gradientColor=none;fillColor=#C925D1;strokeColor=none;dashed=0;verticalLabelPosition=bottom;verticalAlign=top;align=center;html=1;fontSize=12;fontStyle=0;aspect=fixed;pointerEvents=1;shape=mxgraph.aws4.rds_instance;" parent="1" vertex="1">
          <mxGeometry x="730" y="340.75" width="40.75" height="40.75" as="geometry" />
        </mxCell>
        <mxCell id="JwSFWweBYgGYqfRGrPw3-8" value="" style="verticalLabelPosition=bottom;html=1;verticalAlign=top;align=center;strokeColor=none;fillColor=#00BEF2;shape=mxgraph.azure.user;" parent="1" vertex="1">
          <mxGeometry x="160" y="336" width="47.5" height="50" as="geometry" />
        </mxCell>
        <mxCell id="JwSFWweBYgGYqfRGrPw3-13" value="" style="outlineConnect=0;dashed=0;verticalLabelPosition=bottom;verticalAlign=top;align=center;html=1;shape=mxgraph.aws3.ec2;fillColor=#F58534;gradientColor=none;" parent="1" vertex="1">
          <mxGeometry x="571.43" y="341.5" width="43" height="39.25" as="geometry" />
        </mxCell>
        <mxCell id="7XvTThkDAMcgMwTYCS7f-1" value="Internet" style="ellipse;shape=cloud;whiteSpace=wrap;html=1;" parent="1" vertex="1">
          <mxGeometry x="220" y="310.38" width="120" height="100" as="geometry" />
        </mxCell>
        <mxCell id="7XvTThkDAMcgMwTYCS7f-2" value="" style="sketch=0;points=[[0,0,0],[0.25,0,0],[0.5,0,0],[0.75,0,0],[1,0,0],[0,1,0],[0.25,1,0],[0.5,1,0],[0.75,1,0],[1,1,0],[0,0.25,0],[0,0.5,0],[0,0.75,0],[1,0.25,0],[1,0.5,0],[1,0.75,0]];outlineConnect=0;fontColor=#232F3E;fillColor=#ED7100;strokeColor=#ffffff;dashed=0;verticalLabelPosition=bottom;verticalAlign=top;align=center;html=1;fontSize=12;fontStyle=0;aspect=fixed;shape=mxgraph.aws4.resourceIcon;resIcon=mxgraph.aws4.ecr;" parent="1" vertex="1">
          <mxGeometry x="560" y="199" width="41" height="41" as="geometry" />
        </mxCell>
        <mxCell id="7XvTThkDAMcgMwTYCS7f-4" value="" style="endArrow=classic;html=1;rounded=0;entryX=0;entryY=0.5;entryDx=0;entryDy=0;entryPerimeter=0;" parent="1" edge="1" target="7XvTThkDAMcgMwTYCS7f-6">
          <mxGeometry width="50" height="50" relative="1" as="geometry">
            <mxPoint x="340" y="361" as="sourcePoint" />
            <mxPoint x="450" y="360.72" as="targetPoint" />
          </mxGeometry>
        </mxCell>
        <mxCell id="7XvTThkDAMcgMwTYCS7f-6" value="" style="outlineConnect=0;dashed=0;verticalLabelPosition=bottom;verticalAlign=top;align=center;html=1;shape=mxgraph.aws3.elastic_load_balancing;fillColor=#F58536;gradientColor=none;" parent="1" vertex="1">
          <mxGeometry x="480" y="336" width="40" height="48.5" as="geometry" />
        </mxCell>
        <mxCell id="7XvTThkDAMcgMwTYCS7f-9" value="&lt;font style=&quot;font-size: 10px;&quot;&gt;&lt;b&gt;EC2&lt;/b&gt;&lt;/font&gt;" style="text;strokeColor=none;align=center;fillColor=none;html=1;verticalAlign=middle;whiteSpace=wrap;rounded=0;" parent="1" vertex="1">
          <mxGeometry x="584.63" y="384.5" width="60" height="20" as="geometry" />
        </mxCell>
        <mxCell id="7XvTThkDAMcgMwTYCS7f-10" value="&lt;font style=&quot;font-size: 10px;&quot;&gt;&lt;b&gt;ELB&lt;/b&gt;&lt;/font&gt;" style="text;strokeColor=none;align=center;fillColor=none;html=1;verticalAlign=middle;whiteSpace=wrap;rounded=0;" parent="1" vertex="1">
          <mxGeometry x="470" y="381.5" width="60" height="30" as="geometry" />
        </mxCell>
        <mxCell id="7XvTThkDAMcgMwTYCS7f-18" value="" style="outlineConnect=0;dashed=0;verticalLabelPosition=bottom;verticalAlign=top;align=center;html=1;shape=mxgraph.aws3.ec2;fillColor=#F58534;gradientColor=none;" parent="1" vertex="1">
          <mxGeometry x="620" y="340.25" width="47" height="41.5" as="geometry" />
        </mxCell>
        <mxCell id="7XvTThkDAMcgMwTYCS7f-21" value="" style="sketch=0;points=[[0,0,0],[0.25,0,0],[0.5,0,0],[0.75,0,0],[1,0,0],[0,1,0],[0.25,1,0],[0.5,1,0],[0.75,1,0],[1,1,0],[0,0.25,0],[0,0.5,0],[0,0.75,0],[1,0.25,0],[1,0.5,0],[1,0.75,0]];points=[[0,0,0],[0.25,0,0],[0.5,0,0],[0.75,0,0],[1,0,0],[0,1,0],[0.25,1,0],[0.5,1,0],[0.75,1,0],[1,1,0],[0,0.25,0],[0,0.5,0],[0,0.75,0],[1,0.25,0],[1,0.5,0],[1,0.75,0]];outlineConnect=0;fontColor=#232F3E;fillColor=#E7157B;strokeColor=#ffffff;dashed=0;verticalLabelPosition=bottom;verticalAlign=top;align=center;html=1;fontSize=12;fontStyle=0;aspect=fixed;shape=mxgraph.aws4.resourceIcon;resIcon=mxgraph.aws4.cloudwatch_2;" parent="1" vertex="1">
          <mxGeometry x="640" y="200" width="40" height="40" as="geometry" />
        </mxCell>
        <mxCell id="7XvTThkDAMcgMwTYCS7f-32" value="" style="endArrow=none;dashed=1;html=1;dashPattern=1 3;strokeWidth=2;rounded=0;" parent="1" edge="1">
          <mxGeometry width="50" height="50" relative="1" as="geometry">
            <mxPoint x="450" y="261" as="sourcePoint" />
            <mxPoint x="790" y="261.5" as="targetPoint" />
            <Array as="points">
              <mxPoint x="520" y="261.5" />
              <mxPoint x="610" y="261.5" />
            </Array>
          </mxGeometry>
        </mxCell>
        <mxCell id="7XvTThkDAMcgMwTYCS7f-34" value="" style="endArrow=none;dashed=1;html=1;dashPattern=1 3;strokeWidth=2;rounded=0;entryX=0.172;entryY=-0.132;entryDx=0;entryDy=0;entryPerimeter=0;" parent="1" edge="1">
          <mxGeometry width="50" height="50" relative="1" as="geometry">
            <mxPoint x="450" y="473.96" as="sourcePoint" />
            <mxPoint x="450.31999999999994" y="259.49999999999994" as="targetPoint" />
          </mxGeometry>
        </mxCell>
        <mxCell id="7XvTThkDAMcgMwTYCS7f-35" value="" style="endArrow=none;dashed=1;html=1;dashPattern=1 3;strokeWidth=2;rounded=0;" parent="1" edge="1">
          <mxGeometry width="50" height="50" relative="1" as="geometry">
            <mxPoint x="450" y="475" as="sourcePoint" />
            <mxPoint x="790" y="470" as="targetPoint" />
          </mxGeometry>
        </mxCell>
        <mxCell id="7XvTThkDAMcgMwTYCS7f-36" value="" style="endArrow=none;dashed=1;html=1;dashPattern=1 3;strokeWidth=2;rounded=0;" parent="1" edge="1">
          <mxGeometry width="50" height="50" relative="1" as="geometry">
            <mxPoint x="790" y="469" as="sourcePoint" />
            <mxPoint x="790.75" y="258.5" as="targetPoint" />
            <Array as="points">
              <mxPoint x="790" y="359" />
              <mxPoint x="791" y="309" />
            </Array>
          </mxGeometry>
        </mxCell>
        <mxCell id="7XvTThkDAMcgMwTYCS7f-37" value="" style="endArrow=none;html=1;rounded=0;" parent="1" edge="1">
          <mxGeometry width="50" height="50" relative="1" as="geometry">
            <mxPoint x="390" y="520" as="sourcePoint" />
            <mxPoint x="390" y="170" as="targetPoint" />
          </mxGeometry>
        </mxCell>
        <mxCell id="7XvTThkDAMcgMwTYCS7f-39" value="" style="endArrow=none;html=1;rounded=0;" parent="1" edge="1">
          <mxGeometry width="50" height="50" relative="1" as="geometry">
            <mxPoint x="391.25" y="170" as="sourcePoint" />
            <mxPoint x="860" y="170" as="targetPoint" />
          </mxGeometry>
        </mxCell>
        <mxCell id="7XvTThkDAMcgMwTYCS7f-41" value="" style="endArrow=none;html=1;rounded=0;" parent="1" edge="1">
          <mxGeometry width="50" height="50" relative="1" as="geometry">
            <mxPoint x="390" y="520" as="sourcePoint" />
            <mxPoint x="862.5" y="520" as="targetPoint" />
            <Array as="points">
              <mxPoint x="632.5" y="520" />
            </Array>
          </mxGeometry>
        </mxCell>
        <mxCell id="7XvTThkDAMcgMwTYCS7f-42" value="" style="endArrow=none;html=1;rounded=0;" parent="1" edge="1">
          <mxGeometry width="50" height="50" relative="1" as="geometry">
            <mxPoint x="860" y="520" as="sourcePoint" />
            <mxPoint x="860" y="170" as="targetPoint" />
          </mxGeometry>
        </mxCell>
        <mxCell id="7XvTThkDAMcgMwTYCS7f-44" value="" style="sketch=0;points=[[0,0,0],[0.25,0,0],[0.5,0,0],[0.75,0,0],[1,0,0],[0,1,0],[0.25,1,0],[0.5,1,0],[0.75,1,0],[1,1,0],[0,0.25,0],[0,0.5,0],[0,0.75,0],[1,0.25,0],[1,0.5,0],[1,0.75,0]];outlineConnect=0;fontColor=#232F3E;fillColor=#E7157B;strokeColor=#ffffff;dashed=0;verticalLabelPosition=bottom;verticalAlign=top;align=center;html=1;fontSize=12;fontStyle=0;aspect=fixed;shape=mxgraph.aws4.resourceIcon;resIcon=mxgraph.aws4.sns;rotation=0;" parent="1" vertex="1">
          <mxGeometry x="720.38" y="200" width="38" height="38" as="geometry" />
        </mxCell>
        <mxCell id="7XvTThkDAMcgMwTYCS7f-46" value="&lt;b&gt;AWS Cloud&lt;/b&gt;" style="text;strokeColor=none;align=center;fillColor=none;html=1;verticalAlign=middle;whiteSpace=wrap;rounded=0;" parent="1" vertex="1">
          <mxGeometry x="376.5" y="170" width="115" height="30" as="geometry" />
        </mxCell>
        <mxCell id="7XvTThkDAMcgMwTYCS7f-48" value="&lt;font style=&quot;font-size: 10px;&quot;&gt;&lt;b&gt;SNS&lt;/b&gt;&lt;/font&gt;" style="text;strokeColor=none;align=center;fillColor=none;html=1;verticalAlign=middle;whiteSpace=wrap;rounded=0;" parent="1" vertex="1">
          <mxGeometry x="710.75" y="240" width="60" height="20.5" as="geometry" />
        </mxCell>
        <mxCell id="7XvTThkDAMcgMwTYCS7f-49" value="&lt;span style=&quot;font-size: 10px;&quot;&gt;&lt;b&gt;ECR&lt;/b&gt;&lt;/span&gt;" style="text;strokeColor=none;align=center;fillColor=none;html=1;verticalAlign=middle;whiteSpace=wrap;rounded=0;" parent="1" vertex="1">
          <mxGeometry x="550.5" y="238" width="60" height="20.5" as="geometry" />
        </mxCell>
        <mxCell id="7XvTThkDAMcgMwTYCS7f-50" value="&lt;b style=&quot;&quot;&gt;&lt;font style=&quot;font-size: 11px;&quot;&gt;Cloudwatch&lt;/font&gt;&lt;/b&gt;" style="text;strokeColor=none;align=center;fillColor=none;html=1;verticalAlign=middle;whiteSpace=wrap;rounded=0;" parent="1" vertex="1">
          <mxGeometry x="629" y="240" width="65" height="20" as="geometry" />
        </mxCell>
        <mxCell id="7XvTThkDAMcgMwTYCS7f-51" value="&lt;span style=&quot;font-size: 10px;&quot;&gt;&lt;b&gt;MYSQL&lt;/b&gt;&lt;/span&gt;" style="text;strokeColor=none;align=center;fillColor=none;html=1;verticalAlign=middle;whiteSpace=wrap;rounded=0;" parent="1" vertex="1">
          <mxGeometry x="720.38" y="386" width="60" height="24" as="geometry" />
        </mxCell>
        <mxCell id="JLrPNiHId0Hj3Ylr9P3U-2" value="&lt;span style=&quot;font-size: 10px;&quot;&gt;&lt;b&gt;Route53&lt;/b&gt;&lt;/span&gt;" style="text;strokeColor=none;align=center;fillColor=none;html=1;verticalAlign=middle;whiteSpace=wrap;rounded=0;" parent="1" vertex="1">
          <mxGeometry x="470" y="231" width="60" height="30" as="geometry" />
        </mxCell>
        <mxCell id="Gtlh_jwDA_kZR49dkIid-1" value="" style="outlineConnect=0;dashed=0;verticalLabelPosition=bottom;verticalAlign=top;align=center;html=1;shape=mxgraph.aws3.route_53;fillColor=#F58536;gradientColor=none;" vertex="1" parent="1">
          <mxGeometry x="480" y="200.5" width="40" height="39.5" as="geometry" />
        </mxCell>
        <mxCell id="Gtlh_jwDA_kZR49dkIid-2" value="&lt;b&gt;&lt;font style=&quot;font-size: 10px;&quot;&gt;VPC&lt;/font&gt;&lt;/b&gt;" style="text;strokeColor=none;align=center;fillColor=none;html=1;verticalAlign=middle;whiteSpace=wrap;rounded=0;" vertex="1" parent="1">
          <mxGeometry x="451.5" y="261" width="40" height="19" as="geometry" />
        </mxCell>
        <mxCell id="Gtlh_jwDA_kZR49dkIid-6" value="" style="shape=image;verticalLabelPosition=bottom;labelBackgroundColor=default;verticalAlign=top;aspect=fixed;imageAspect=0;image=data:image/png,iVBORw0KGgoAAAANSUhEUgAAANUAAABDCAIAAACEHdeKAAAUe0lEQVR4Ae2d91dT27bH77/jPeN5zn3Hex6oBCxHSAELKSAgICogSpfeexVFUCmhl3TSIJUktNBEQEVBVBQQEAUULJDkh3d3Fm5iEjC0G9E9RkbG3Curzv3hu+cqCf9QqTXIC/GAuTzwD3M1jLSLeECl1iD8IfJvTg8g/JnT+4gEIvwh/JnTA1vhb27hk2dIee/gC+TPF/HANj2wFf7CUml23mzbSw3HXIvOh5ZNTr/bZieQ4r+sB7bC39W4Wjtvjp0PB7yf8GY6B5U/nXj/yzoRGfiWPbAV/pR9o7bebEgCvdkQhZe5dld4Nh5l3knM+cUvW+4KUvAX9MBW+FOpNX+7FUDi582x8+Xa+XHRV/lofz46sAnlfie1omNZpf4FXYkMeQse2CJ/FYwe24tMO282zJ8dxF8jOrjJNpBjc6mY3j6+hd4gRX41D2yRP5VaY026YefDQV/moq/wIPELaMQENWFCBJhrQky4yOpi6bkcxfT851/Noch4N+WBrfOXU9Zl41YOgj/AHzqoCa3lDx0uwkSK/w5psA6ooSgnNtUhJPMv5YGt87e8orI9X27rw4KCv4BGdGAjJliACRVgwkSYCBEmSoKNlmBjpYd8Sy5UPHjzHpmXmHOZ94dleuv8qdSaEvqDQ8Q8u6s8wB86WIDW4Q8D8deMjW8+7FtiX9Rf2z35w3oB6Zi5PLAt/lRqzckAzkHidWjmoRP8YSLFkPjFSLFxzdgEGS5Jbu1faV884Esbere0bJahDs4s1j6avtP/+s7A69KH02bpA9KooQe2yx+/9cUJP8Yh53wQ/KG1kw9MhBgTLcGs8teMTZRjk+XWQdUO5AF8zdDDqS2uVL9Z+hxaoySE8/H+PIJ/Ez5CREhuPnuzNbC+r6bnpe7YHk6/T5WNutMfEuuGSJRRJ9orZ9akM3fauWnWRTR1qXmy9OFb3fyIbS4PbJc/lVrjES86cYVx0CUfEyrUBn9iSP9ipNqHrwzoHy5ZgUttsQmpPlX50LF+mD00s9kBNw2PO0ZyCBdYBB8O4QqfECgghoqJEc3EGDkxoY2Y0kHK6CYWdJOKeolF953uPnIqfeJU8dS59tkV/tit7pnOiY+TH1Y22yiSf7c9sAP8jb1+f8KfeTyAYelyA31NAIlflBgTI8XESrHxEH/YJDkuBeIPl9aCCq5wpI7iGc+LezcxL+6feHvmKgPvycBfYBF8uRB/QYIzQdwzwRxijIKY2EZMUZIyu0k590g3+0mFg0HMYeXz95ML5nnW7/Y9+5nq3wH+VGrN9dr7xwMZx4MZBz1v24ZwtTMPKPjDJciwiXJI/FIU9mkt9umt9plt1pFVBNYLInsso2PMRFcSwhrw52iE80zCJTbhMo/g30gMFv3Pv//+7V9WhFg5KamdlNZJyuoh3ejLl4zNLSE6t2fm2jvDn0qtORPFPxbEOBpCR12pQvmUY2KlGO3kA5sowyVr9S+tBaflD5fZYpcvJbDHiNyX12Sj30XQv1iOd6Xgz9HwXky8N5vgxyMENBFCRIewVy0xvsS4FmJyBzG90/l67+jU0ndrQzL8UB7YMf6GX80fD2YeC2UcvcawCaNaehVg46S4RDnu68MXEr+MVvusNvvs9mNRVCJnjMR75dQ47i0ZXVxeV7EaB8bwblTo5UE3FvwpiAltpBQlKbt7/O2nH8qzSGdM8cCO8adSa24xB4+G0o9co9uE020i6Za+RUeDqWvBX3or7it/DrkdNol1JD7En7NwwkPybPaj8QVqfCATEj83Kt6TQbjYAAV/VxsJQQLCNQkhspkYqw3+UpXyoVlTRovk+dE8sJP8qdQa13Tx0TDGkQiIP+toOiqGaulTgI4X4tJaIPHLbHPIbnfIaXe4rvw7nuXU+MpJMO4smjwreX2u+eXLD/qbxedzhQSt+BHctcGfNxT8EQOaiMEiYriUGCUnxbcSk9oDKAM/mluR/pjogR3m7/3SlxORDTbhNOtIGiqahoqhoWKphyKqD/rdRSeJcZmt9tlt9hB/HQ55SrsCkVPTuLNowlky6dI85SoffzS3CPc7sEQb9rlSIP1z1w/+COFSQrScGN/qWND6aRk57rVnJhzw/QXGDvOnUmu6n8wciWDYRNGtY2jWsTRUHA2VQEMlUq0S6i0Dbx8Jr3PIheBzuKG0jq50FkycFU+elb52kU25KqZdW14rXs9PfVg6l8ZfDfuA/nkyoOBPu/JCDNKu/EU2E2MU+OzWmoFXekNCLveQB3aeP5VaUyp6Yh0FxI+GiqOi4qmoRCoqiWqVTLVKpR5OqLQMvYMKL7eOrHQSTjh/5c9FMUWSPXWU9JyOYkGa50rVvq8Gf/i14E9IuCYmRsrwKQqnho495Gukq4Ye2BX+VGrN1eJWSP/iaKj4Vf1DJVNRKVRUKtUqjWqVQbXKpFhlUdE0MY6tsOe12TcpcAIpTiCBXjzxmUjWauTnRsW70wheTMLXlRdiCBT84TNkOI60b2recEhIyh7ywG7xp1JriDlC6OEbT0UlUK0SteKXQrFKpVilUawyKIcz6w9nUtBUEYYlxnDE2EYxtkmMFay9OxTyHD21EggFf6y1lb8w0anbEqxAfEV6z3RHz76bo7O4SanZbp6+bp4+3b334bI99/pDI+JCI+IiY5LhxD1nyFs63Dx93Dx9BKJmw84vLi/Hd/Pju/nkIaXhp1tLGZidAHVKx4e3VsPu/v7G5xXVmZxGSP8SaagkKiqZapWiFb90CiR+kP5R0HQxpkGM5Ym1yge9YwVrNo4rOnWTdyaC7RjJPRPDd0xoOp0vsudo8zRKZ0z+rpNIIv/XXzb79lvAL6FYBrus514/SN/T/NGYHDCK8qp6eGiw8f7LZ6KQTBSS47v5cOI2jZbJUVAnZWQTQqDX6C7qn0qt+bisOpXDgyYfIPhL0Yqflr/DmRRULg3NEGPYEH+Q8m3mldH1WG8k610+Hn76x7+tYfKAgfC3nrtMT98D/KnUmk/LKudCIQj+rFKpqHSqVcaq/tncYmJYYixXgm0EmqcN/kAIuOH7Kb7cRDctr6gczrgA5o787VBZTeno7FF29c6+nYNrQPQPdsWmjL3Bn0qtWVFrfCvk0MNXG/wd1vJ3OLP+WAkXzRJjuNrgTyfy040CjdoNw6aenZE0twD4jqNPzy8YP3eI8Lcp7ODMe4Y/0ONIphKa+QL9y4Ik0I4i1AZ/38R8uvGfUfuccBNrLslpuYA/Nk8AO07PQPjTc4iJl3uMP5VaQ+kdtc6mA/2zyWeimdrgj/9t5AdmwYax4NfZ8eO3xmVMz2vTb2aVXb3ObhcBfzQmR9nVq+zq7ezWD5Y34M/LO8DN0ycqLkWvcvjyyfAomHUWlVbCiXrG0sdPQrEsv7A4ICTKzz8sL/8uly98N7egl03vcnlFJZW13rpd4hcQFhASVXiXLG/pWDH2xf7A0Oj/zOjR9kQwUlssHnTJzdPn4aMnoFq9+cf00ofyx53x3fy0XlHNcE/L5OiHL8b33+mj9/0UVD8FVTY+Avcwf0AR380PbGOA+cdlBRVMhOO7+Q/fvoazmWLs7vzDsAev5j6QyAKrLIptjUAb/IlxTaaGfTiBJLdnyLBOoynMBj64H3rvvx+w0su/AX9/HEDt229xCu+qVwS+hMtGRCfBibqGUCI/ZIPW68O+/RZ/HTpOZ3F1c+ravX0DME+6ZU8TzsFIwfmPnjipm0fX7ujsAdlg/oLbmPmDCpKoDKADv1+U1d2bMbKTRB+9D/Lo8uffSocL6hkdr5/DHTPF+G/zB/qU3tyOpfGhlT+udsHvq7YZjfbgdUGvpk2sXf0I/FXX0XVpMLTzC4sNbxKvUfTP3y0NM4OU3/44KJR8M/3aFH96uOhekoTkttfP9PrzE/I3u7jgS89zq80m1Jc6sDl6a35GYz4sT3KyXj5r8oKfSq1paVO6efpYHD4BbhvB+Tx4Kp2/eFXPxbCGGa7/bUf/Ojp7YIy8/YIfDq0u0o6MPg+6FgPj1SSU6vZnYnLqf/9vdanSxd27f+Ah+HTgwZCLuzco9deh49Nv9M+bmbj+B4Dza6F2TY990T7Np5c+5A8oQLqrpHJi8ZvAwCh/oEt7L/6D5sIqdYq43LMuw60m62x1LqkyD19bfIpOsedwcXyB4RIghiW0qxGcKBHfn9jKrwxeuhwM7tnos3XP+u8Gf5+/LP+NPgOaDgyNNozb4InRYRvM4tJHGMHImGRQKiA4cnlFBaer1JrlFVVw2Cq4SanZuh+p1BrT+QtsYxhGe9wXDwCCWX0S3Zp/Nv4YA9KL1LTz9RnnarNcanKdqm4Qq27hK287VhSfLiefLK+0r6rH1TAxVSx0OduulGNbwrctEVTf038u6PpoA9tc/AnFMoAR9pTTx09GQvsVlRrWs3oaCwzh/Yel3w9Y7dtvccDy2Ny8kWnW/ML7A5bH9u23+NPiyKfP31RrOn+P3xn/+nOEkgMQfPNx7RTcT8WfZFjpQ0u+QEn11PJ3tjqHVJlHrMzHVxSeqSg6VV56sqzCnlyNJdejS2l2pSzbErZtCS9D1r+y1X9SYi7+4pIyAH8sduN6fx7NijZYIEGe7t77ICUsKmG9UqHhcSBP/+Aj3Twm8hfYxtAtpWs3jj0C/OlONX4e/mQjHVcYib705IvU1K/6l+NUlfdV/4q0+ldhX1aDI9djyHR0KcuulB0v6jF8eOl6bWPbXPxd9A0ElLB5ArDuY/guU7SDPCQXLzAKkUQOUjJz8tcbV05eIcijd87ARP7iutbd/+2efgn4oz1dO5zxk/AnetIcxIq7wkjwpSVfpKSer08/V5vpUp3jVHUd6J9jRdHp8tKT5RX2ZbD+MRPEXevdBhPTzcUf/GwFrGz87urhA4YDP7Wzr99ab4B5+XdBbVy+UDePifxtcP6gZ2aVv5rh1VUblVrzM/DHGWSHcaKDG+KuMhN86cmXqKlelAz3uizXGog/UlU+obIQ4q+i9FR5hUNZNa6sHkOmJUo6wQRN18ubtfcEf/BCoHn56515BfTvp+KP1U+J5oaHsaOCWbFXGQm+9KRL1JTz9enutZmuNdla/buJryhwrLh7urzkZHm5fVkVjlyXIdvEUt8GUJqLP3cvP6BSTq4X4N0IQ8Pdy6+BsxYgmpe/n03/Fj4tlCnzEhqvxfAiwjlRwQ2x/syEy6v6l+5el+lak+MM6d9Nrf7d1epf+emKGuYDU89WbUAe+Gib/FmibPftt7DF4ddrqKVNCThLTsvVzRMQEgXS9WYJunkM7d3j74tKRdKe/4tQcgzbBSltk8+A/jFH++E8e/X5O/Z2+JY8OlUQnNAYGsML/8pf/GWt/nlRVvXPuSqXVHmTULmqf15U6uOZN/Dgt29skz+8s+e+/Ra//XFw9t3aeS3dXt0sKAacVVR/c+rzbkkFSE/PuqGbf2N7O/xxeELQYuFdstFWvOX1RCHZTVL5cdn4z+KQh5SAP91dkA34U069APkrHm89TN/5/bfPy5/lw/V50qtZooA0YXBiY2gMPzyCExXCjvVnxvsxkrxpKRco6R51mW61Oc7VQP8K3OrIdffvLX4x7hqjDjUlcZv8FdwpBTc1KS3HsLnpN7MHLI6CDC9ffXMkbPTZGEj/0+LIxOSUYVmjKdvhr6unD7To7uVntPLiR+0Alzpjx5Wnlt6fFZcThWQXcYXu6vQG/A3PzYAKI9fXVKM90U3cYf5GpjqqOq7davbJk/hlifxTBUEJjSExvLBwTmRIQ4w/M/4yPdGbmuJFSfOAtkCynatyz9UWkrta5j+u7QHo9m+b9jb5eze3ABN2u6hMdyXo1fgk3skD3PJrkfGG/bzkGwQ+tbMnGB4aMMyvUmu2w9/yisrqCAa0WFlNMax/YnHBWXvsgCQk816sbuuBbOMf5oPbmACmqifdumU34A861qmggFL00bUlG93i37V3jL+3H8Z4/fHkVq8ixaUCmW+e9Eq22D9NGJTYFBoL6V9kKDsmYE3/IP6SRHXNIw/Wexx8t+umZNgmfyq1hkpng5u6b7/FSUeX3Bu3bxYUR8elwl8o+evQ8akZ/d1YlVozMTkFb8H983dLP/+wmwXFei+9Hbbt8Ke7BbdvvwXeycPN0ycxJUvXS7SnfQAXopAcoeTUjfRSRu4VDLYA5SMKyX4t1MVvn84b8Adtsn/9CghRSA7rYMd38+88bNNt8bv2DvD3YqZZPpRUp3SravdY5a/ZJ0/qly3S8tcYEssPg/hriAlgxvnRExOFd+n9ssmFreznfnc8ehm2z59Krcm+XgAjqGf8aXGkq6dPr1H4cvbdHIgg9UrBl3p7aNvkT6XWxCakwZXv22/h5HoB7gw4iJ4/uHrUAAYRNryaa54v6P8s7Mb8qdSasqFOuAYthQ26LX7X3hZ/k2/lncPRiqFIZvfZeqVbdbtHWatXseJSocznhtQvW+yfLgxKagqJ44flNOeUdda0jHbNLv5Xv7G7I/yp1BqxVOFx4YrurT1geSw2Ie3Z829+99fQ3V+WVyqq61HHcLplYfvzt/Hu9vmDVoxZXFssHjTh7HbRsEuyiZHoTq4uNBdkteWPO2d0tn3hUt/l7z//CUY+8TSgdfUsalgHGy5rirEt/uAGPi9D0dv80tSL2b6+saZ7Y8LBifbh6YGX757PfTQ+c4TL7qox9GQEbHwtfVz319l67vVX19LAa+POTExONXAai0orFa0dRk8VrFd8eUXV2zdQXUff+Pk7MvocZGhtX3dG2dHZA/I8Hn66XnMrKnXPvX5lV++DR+uuZE0sLkjHhxueDw7MTm7w/9JaJ0fh13rNAWUdejc1ODs5Mr+55Yud4W+DniEfIR7YwAMIf3v1l6M2uKl76COEP4Q/c3oA4c+c3t9DQrVLXUX4Q/gzpwcQ/szp/V0SlT1ULcIfwp85PYDwZ07v7yGh2qWuIvwh/JnTAwh/5vT+LonKHqoW4Q/hz5weQPgzp/f3kFDtUlcR/hD+zOkBhD9zen+XRGUPVfv/YJI3/dNqkp4AAAAASUVORK5CYII=;" vertex="1" parent="1">
          <mxGeometry x="446" y="486.72" width="74" height="23.28" as="geometry" />
        </mxCell>
        <mxCell id="Gtlh_jwDA_kZR49dkIid-10" value="" style="shape=image;verticalLabelPosition=bottom;labelBackgroundColor=default;verticalAlign=top;aspect=fixed;imageAspect=0;image=data:image/png,iVBORw0KGgoAAAANSUhEUgAAAsUAAAEHCAIAAADJYaxtAAAgAElEQVR4Ae29B3jUVrr/n927/717f3vv9pZNsptKQgJpu0k2W+xxxY1qegg2zQZM76EZ0wnVdEIvBoNN72CKwcYGbIw72Bgbe3rvTe2/zmyGie2RNDOSRjN+ec7zoJHOec/7fs6RztfS0dELBPwDAkAACAABIAAEgIBvBF7wrTiUBgJAAAgAASAABIAAAXoCOgEQAAJAAAgAASDgKwHQE74ShPJAAAgAASAABIAA6AnoA0AACAABIAAEgICvBEBP+EoQygMBIAAEgAAQAAKgJ6APAAEgAASAABAAAr4SAD3hK0EoDwSAABAAAkAACICegD4ABIAAEAACQAAI+EoA9ISvBKE8EAACQAAIAAEgAHoC+gAQAAJAAAgAASDgKwHQE74ShPJAAAgAASAABIAA6AnoA0AACAABIAAEgICvBEBP+EoQygMBIAAEgAAQAAKgJ6APAAEgAASAABAAAr4SAD3hK0EoDwSAABAAAkAACICegD4ABIAAEAACQAAI+EoA9ISvBKE8EAACQAAIAAEgAHqCF30A1avNJXmoTsULb8AJIAAEgAAQAAIeEgA94SEwFrJbmx+LJoW2JHUXTQ4zV91hoQYwCQSAABAAAkCAXQKgJ9jlS24dM2o1R9cJx/6tZfh736Vuyq0zEYWIvCAcBQJAAAgAASDAKwKgJ/zWHJhRJ1ud8p2McOqJbzdGfmgquYqjqN+cg4qBABAAAkAACHhCAPSEJ7SYy2upKhJP79GxmPj2XoVw1EfKHV9hJj1zdYIlIAAEgAAQAAJsEQA9wRZZt3YxzFh4pmXEByRiwnlIumiwXfzUrSk4AASAABAAAkCAHwRAT3DdDtozO4SjP3YqBsoN8ZRw67Narr2E+oAAEAACQAAIeEIA9IQntHzNi2uy11AKiPYZhKM/Nt2/4mvlUB4IAAEgAASAAGsEQE+whratYVy5f0lLUrf2coHWnhHvG8tutjUJv4EAEAACQAAI8IMA6AmO2kF7fJP3YuK7GZrG4gscuQvVAAEgAASAABDwhADoCU9oeZcXw3RXD9G6CfF8FYrvvz7q3J/c3VxTTOC4d45AKSAABIAAEAACLBEAPcES2OdmzQ/zhWP+yoyeGP6eaGKIvfnRc+uwBQSAABAAAkCABwRAT7DbCLamWmEKY2LCIUpE06IQlYRdv8E6EAACQAAIAAFPCICe8ISWh3lxq1m6cABTdyZc7SjWTyBwzEN3IDsQAAJAAAgAAbYIgJ5giyyO2pU757mKACa3k7rrzu2EiRRsNR7YBQJAAAgAAQ8JgJ7wEBjt7MaC00wKCOeUTJcNy+NS2u5ARiAABIAAEAACLBIAPcEKXMykF8+IYVtPyJYNxzF46sFKC4JRIAAEgAAQ8IgA6AmPcNHKjGOoPHMy22LCYV97Zgc89aDVKpAJCAABIAAE2CQAeoJ5upbqIpqf+/Jdc4jS/onImpmPASwCASAABIAAEPCEAOgJT2jRyYuhspUjfRcK9C1ojq2j4xfkAQJAAAgAASDAHgHQEwyzNdw+7eO62vSVhCOncOSHiFzIcBhgDggAASAABICAJwRAT3hCiyovZjZI5/X1VBD4nl+1dxEsR0HVOHAcCAABIAAEWCQAeoJJuNbakpbk933XB55aEE+NRHUqJiMBW0AACAABIAAEPCEAesITWlR5ZatGeyoFmMmf1M1QcIbKOzgOBIAAEAACQIAtAqAnGCNra6phRhy4rFhF36Bkbh8CQxkLBgwBASAABIAAEPCEAOgJT2iR5cXVB5bSH/7ZyGl9Uk7mIBwDAkAACAABIMAaAdATzKDFEbt0QX82VAJ9m4oNE833Llsfl9gljZhJTxA4M7HRsIIjdlSvRhQiu/ipXVhva35sa35sFzWgWgWN0pAFCAABIAAEAp4A6AlmmhDVKVtGfkB/7Gcvp3DkR8LUz0QT/iWZ3099bJ3lcRkzEbazglstpgc3VFkrpRmDxZMEorR/isZ+Lkz9TJjyqXDMJ60p5VPJ7AQcRdoVhR1AAAgAASAQbARATzDTorpr2exJBB8tC8f8VbpkmObQSmPhWZuw3pc3SxG1zHTviubw19L0QS0jP6TjmPbUVlgRnJlOBlaAABAAAjwmAHrCp8bBURS3WQx3zosmC+gMrnzII5zwL+3Zb1C9GkfsNJ+J4CiKKITKb+a2jPD4bVjxzFjMoPGJMhQGAkAACAAB3hMAPeFdE+G2ljptbqZs6ZfC1E/5oBI89mHEB5L5ieo96aYHN3C7zR0FHLEb75yTrRghHPWxx1U4XlRJ7m68c86dfdgPBIAAEAACwUEA9IQn7YhhiEpiuHVSsqCfl4OrV++Csl2XaJJAe3anXfwUt1udOHDEbmuskixI9L120dSIb++FOG3DBhAAAkAACAQbAdATdFvUXFUkXz1GNDHU9/GVnxaEqZ9JFw3W38hpfVnDoFVsnCIc9RFTrporCuiChnxAAAgAASAQgARAT1A0GqqWGm6dYOTPdKbGZrbtiCaFCsd9zmwt6n2LKUDDYSAABIAAEAhkAqAn3LYeZjaqj65rHVmTujE7uHZCa5I5Pd2ChgNAAAgAASAQ+ARAT3TQhoisWXNktWhSwLyyEQACJfl9+Kh6B10NdgEBIAAEgoUA6AnXlsQxi0lzejvckGBDoKiPrnNlDdtAAAgAASAQTARAT3zXmhimO79HMjsBxAQbYqJl+HuiKeG+LKX1XTvB/0AACAABIMBHAjzTEziOWU2oWmYXNVgflxoLz2pOblXs+Eq6PFkyr59oaoQw9bOWpG7ClL8KUz8Rpn4imhohXThInjlJtX+x7uxOU+l1+7NaRN6CGTT0l3nGUcTyqEQ8J56lcRTM/odAUjdEJeXjSQA+AQEgAASAgM8E+KEn8NbloXQX98nXjpXM6SWeHC5M+dS7+wTCUR+J0v4pntFDmj5AdXCZ6eEt1zUV2uNCtUrF+jThmL/CqM86gaRu1vqH7ZsA9gABIAAEgEAQEPCbnsDtVltjtTH/uHLHV6LJYewNZsLUz2TrxhmuZlkbKnCb5Xmboaix4HQQryfBHlKvLZvuXX7OH7aAABAAAkAgiAj4QU+0znk8vlk04V/CkR95dxPCu/FMOPJD0cRQzblduN2K6lTSxUNakrt7ZwpKeUfAcO1IEJ07EAoQAAJAAAg8J8CdnkB1KsONY/I1Y1uYW3XRu1FNmPopvAvqHTofS2lPbH7e9WALCAABIAAEgogAF3oCt5o1xzcKR3v7QSlefvPCx5G1cxbXZK0KonMHQgECQAAIAIHnBLjQE+aH+Z1z+ISo2xBQ7c143vVgCwgAASAABIKIABd6wlB4ts24Aj87JwHV3kVBdO5AKEAACAABIPCcABd6Qp+X3TmHT4i6DQH1oRXPux5sAQEgAASAQBAR4EJP6M7tajOuwM/OSUCTsyGIzh0IBQgAASAABJ4T4EJPqI9t6JzDJ0TdhoDh8qHnXQ+2gAAQAAJAIIgIcKInjq5vM67Az85JwFh0PojOHQgFCAABIAAEnhPgQk9ocjd2zuETov4egaRulselz7sebAEBIAAEgEAQEeBCT2hPbfveuALrSXhEYNTH4pmx0qXD5esnKHfOUx9erT21TXdxX9t0brcmd6Nq/xLF5unSZcPFM3r4fd2wto2e1A1Ry4Lo3IFQgAAQAAJA4DkBTvTE2Z1thxaPBtTOkDmpmzD1M/GMGGn6IMXacZoja/T5JyyPH6BaxfO28nQLQ+1yobmiQHthr3LbTNniLyQz44RjP/NbWyR3R0FPeNqIkB8IAAEgECAEuNATukv7/TaG8VyLJL8vWTBAnbvJ8ug+ohCienXrF8twnI3OgyN2zKBFFCJL7T1V1irR9CjuG0W2YgT978izAQFsAgEgAASAAEsEuNATxsIz3A9dvK1RNOGfslWjNUdWm0qvoToVS+1KbRbH7ZJG/fWjyh1zJHN6cfZhNtmq0ZheTe0e5AACQAAIAIGAIsCFnrBUF/F2dOfSMUnGYFPFbQLDWLoD4X3HwzFEKVbunM8NDdmq0QSOee8tlAQCQAAIAAH+EeBCT9gaqzrvl8FH/0WxcbLx1km7rJl/rd/WI1SnMhVfUG6fLUz5hFVtodw2C7fb2lYPv4EAEAACQCBgCXChJ+wtdZ3u46LJ3UWTBKqDK1CNDxMq/dercJtFe2aHeHJYy4gPWBIWmhObYS6F/1oYagYCQAAIMEyACz2ByJpF4//O0rDEQ7PSJV+YS6+hWiXDbcW5OcyoNZdcky5LYmV2RVI33YU9nMcEFQIBIAAEgAArBLjQE6hWIZ4aycOBn1mXhKM+li390liSRxCsvKDBSvvTMYph5spC+eoU5m8yjf7YUlEQbLjoIIU8QAAIAIGgI8CFnsAsRsmcnswO3nyzJpoaYam52/q2Z5D+wxG7XfxU9vVoZskLUz+1NdUGKTMICwgAASDQiQhwoScIDJNlDGF2HOKPNcnsBP2Vg51kKgCOIqbSa7LlSS3DuzHVBLIlX2BGXSc65yBUIAAEgEAwEuBETxCEcuc8poYfHtlJ6qbYNhNH7MHYMShiMpVeE6Z+ylRbyFendBJBRoEVDgMBIAAEApYAR3pCn3+CqbGHJ3Yk8xPNlYW8W0mCw45olzWrDy5rSX6fgRYZ+aH+8kEOfYeqgAAQAAJAgGECHOkJm6SJgVGHH4tnC0d9pNy1gMBQhpsiMM1Zn9VI5vdloHGTulnrHwYmA/AaCAABIAAECI70BIFjwrR/MDDq+FtSiKd8O+8SRaDvOAmgBo3u7E7f3/6QZgzB7VanWdgAAkAACACBACLAlZ4gCPmasYGtJ5K7y5YNt4ufBlDrcucqjpseXPf9OyCa3A2t65HDPyAABIAAEAg0AtzpCd25XQGtJ5Q75+JWc6C1L6f+ogaNYvM0n1o5ubu57CanTkNlQAAIAAEgwAQB7vSEpaKAmbl7nD/yEI76WHf2G5gwQau/4bj+0gHhqI+9VhXSBf3h0x60UEMmIAAEgACfCHCnJ+yyZuHov3g9zPit4Ij3DQVn+dRkAeCLXdYsmhjidZOpslbCopkB0MzgIhAAAkDAhQB3egJHUcnc3l6PMf4pOPID070rLrhgky4Bu6hBtnqMd60mHP0XW2MV3ZogHxAAAkAACPCAAHd6giAIfd4R7wYYv5QSjvvcUl/GgzYKVBdwu7V1OkVydy+aT5E5GR4wBWrDg99AAAh0SgKc6gnMYmoJlEceyd1ND250yi7BZNC4zaI5sdkbSZHU3ZB/nElXwBYQAAJAAAiwSYBTPUEQhGzlSC/+WuW4iDDlU1PpNTaxdyLbOGLX5m70YuqMZFY8ZtR2IlIQKhAAAkAgkAlwrSf0gfDWqP7q4c68kDbz/RnHDXnZHovCpG6GW6eYdwYsAgEgAASAAAsEuNYTtpY6j8cVLl8QTe6uzc1kgXOnN4lhhuvHPP2EmGjCvxCNvNOzAwBAAAgAgQAgwLWeIAhCkjG4Jek9fibZsmGd83uh3HRV3eUDLSO6e9T0mqNrufENagECQAAIAAFfCPhBT1jrSltGvd+S/C7fknTJEMyk94UmlKUggGGGa9nCMR/Rb3rx9Aj4qAcFVTgMBIAAEOABAT/oCdxqlizoQ39E4SanMOVjawN835L1LoljqDprecvIbvSbVXt+N+tuQQVAAAgAASDgGwE/6AmCwDXHM1tGdOVRGtXNdO8irMnoW1+iWxpHbJojK1tGvkuzAwhTP4JZFO3hWq1Wo9GoUqkMBoPVCt9lbU8I9gABIMApAb/oCQLVKoUTPmsZ2ZUnSbljJqyexGW/w8x6+box9FvfcC2LS/d4VZfRaHpS/6TgdkH2kexVK1dNmTx1yOChsTFxoSEC1xTTI3bI4KHTpk5bu2bdyRMn792919LSYrfbeRULOAMEgEAQE/CPniAIQntma8uornxIwomfoQZNELcxP0PDEbskI5FmB5Au7s/PKNjzCkXRkpLSefPmx8XGR0VGhwnCXdUD5XZ4WESP6JiBAwbt3rVboVCw5ydYBgJAAAg4CPhNTyDyZtGUv9McTtjLJhz7oakMlq7yz+lga6oWTviEVuOOftdSW+wfL7mt1WQy5d/MX7F85cABgyhFA80MEeGREydMPLD/YENDA7fRQG1AAAh0IgJ+0xMEQaj3zxeOfse/SZE5BkeRTtTgPAvV2lAuHPcBnT4gXzaQwDCeuc+kOyaT6cKFi31696WpErzIFiYIX75suUwmw4KaJJOtAraAABCgTcCfegIzasWzw4Vj3vFXEk/9O6qW0GYFGVkggOPaU5l0OoBo4l/t4icseOB/k3qdfuc3O4cO+cILieBFkV49ey9KX1RXV+f/yMEDIAAEgoiAP/UEQRCG64eEKV3pDCfM50npqs/bH9hNiWOYxYjqFIii2S5+Ym+utTVV2p6W2xrLbU1VtmfV9pZau/gJomhBtQrMrOfnnRgcReRrkoQp1LLScO1gYLdXO+8tFsv16zcS+/X3Qhb4WEQQGpaZuRGmVrRrE77vsFgszc3N9+7d27Nn7/x5C5KTRyQmDoiLjaeT+vbp19zczPcIwb+AJeBnPYGZ9eJZoa1jCedJPP0fmEkXgA2Ho2qJoei06uBC+YpB0gUxktlh4mmfiyb/VZT2oWh8d+HY94Rj3xONf781TfhQNOmv4ul/l8wWSOZFyzJ6KrdN0F38xlJbjFkM/IkdUQglswWUfUCSHs8fn333pKmpafSolIjwSB+VgdfFBaFh/RMHnDt73vdYwAIHBPR6/f59+5OTRiTE9xSEhnnR7rNmzoZHXRy0VKetws96giAIW8sj0eS/Uo4lDGcY181UeStgWh3H7eJ6U9FJ1f55knlRwtSuDNBIfVe6pI/68BJT0Snr03LcavIvDdP9C8Lx3SnjCo41x8xm8/Hc4wnxPb0YEhgvIggNWzB/YXNzi387ANROQkAqle7Zs7dXz96+tH5kRFRjYyNJLXAICPhIwP96giAITfZSYerbXCbFxtE+guOoOIYZSy5KF8aI0roJx77DCqKx7wjHvyea+IFy/1eI0o+DCq45tpwyQPX+uRyRZ60aq9U6dcpU7/6+9GU4IS+bEN+zrAzWh2Wt1X0wXFxUHNMjlrz56BydPn2GD15AUSBATYAXegLVyiXpMcKxb3OWzOXXqdn4MQeGmsuuqHZPF037lDMmrRWN7ypd1kebu9L69CGBc/0yBaISiWf9gzxe6eIEXj2p8bSPVFdXJw1PpnP15z5PVFT0tm3bLRaLp0FBfpYIGI3GjZkboyKjGekMZ86cZclPMAsEHAR4oScIgrBLnoqmfCwc9zYHSbq0N4Hj/OwBuM1irrolmRfGAQfyKmRfD7Q2PMCsRi5BWR4VCdPeI3FMNOkDRN7EpUsM1nX37t3wsAhGxgZBaFh4WERkRFR0VI/IiKjwsAimbnjMnjXHZPLzwy8GmQeuKbvdvnBhOiO9JTREEBUZrdMF4nSxwG3Azug5X/QEZtRwM4iKJna3NVXwsalx3HTvnGzVAOEEsgGVZKxl45B0SYLu4nbMwp2qUO2dSR6I/lpAvpVz+dIVHydMREZETZo4ad269SdOnLxTeKekpKS8vLympqa8vPz+/ZKC2wVHjx5btmx5ctIITxfTdB20BKFhqSljW1r8+OSLj2cnxz6ZTea5c+czpRFDQwT79x3gOASorhMS4IuesDaUCdO6Cse/zXaSrx3Ku+9f47itpVaxeTTbsXttXzIv1FCYg+qVHJwhNuEj0eT3SVyVLufv7SV3fC5euOg6ZtPfjoyIGvbFlyuWr7x16zb92wZCoehw1uGJEyb17tWHfl2uOSdNmuwuFtjPAYFDB7MYFBO9evaGmxMctBpUwRc9odw9VZj2NgfJUJjDt1bXnt8kmvEJB7H7VMWErg5VwT49XJ+fRebqhHfsAfXI49q16z2iY1xHazrb4WERGYsyqqqq9Ho97tXjORRFZTLZyRMnvVjf4urVq+w3NNTQMYEHD8qYmjPh6Gnz5s6H10Q7Zg17GSXACz2B6pWiye8J07qwncQLw3Abj6abWRseyNYPFU5gPXDGwE58W7EtxfrkPqOdsK0x3GaRLu9F4rPxTm7bMnz9XVpS6qmYiI2JW758RVVVtXcyoj0Js9ly+tSZ1NSxdP7kjQiP3LVzF1NVt3cG9pATMJlMKWNS6ShO+nnuFt8lrxSOAgFGCPBCTxjvnW4dU9lPhtuHGaHGiBFD0XHhpHc5iJr5Kia+ozo4G0esjHDo0Iih8BiJ25rs9A5L8W2nUqmMi42nf90PDRGkjElVq9VsDOcYhl2/dp3SmblfzUNRlG8kO48/JSUldGSfazv+e2GJpOHJKWNSO0wL5i/sPPQgUv8S4IWeUGfNFU7swnYSz/4EkfNiORfMYlAfyxBOeY/tkFm0P+lt2Zr+lprbLL0pgyM22brB7vyXZw7z72lDp3aj0Th+XJrrdZ98u1/fxDNnztCfJEHHh/Z5FArF5s1b3C3KOTZ1nFKpal8K9nBDAMOwUSNHk/cT59FZM2dfv35DKpVx4xvUAgQoCfBCT0hX9nI3cjC4X75+MIH5/w8vVK+Urx3IYFx+NCWa+p7+xj7cZqbsZ15ksDaUiKZ26zA68dzPWdIxXvjZYREMw7Zu2ea89JNvCELDhgweyuXHxOvq6tt/fqxP777wcYcOW5OznRUVleRdxXE0Nibu0qXLnHkFFQEBmgT8rydQg1I49V3hpC5sJ3N1Pk0o7GWzSxqkKxLYjpRj+4qtIzCTlnFouN0iW5PYcSyT3+b5lMy8vDz6L21mLMrQapkHSN4icrl8/br1TiejIqPv3r3LxnMWcjfgqCuBLVu2UuqJ+LiEhw/LYX6lKzfY5gkB/+sJ3eVtosld2E7SxeF+/4sWkT2VrYxnO1K/2Jcs+Lv16QPG+7S55pZo6jsdRqTP5+8qFFarNTlpBOXAEBoiCBOEr1m91l9jA4qiWVmHeyb0EoSGHT16jPHmA4MeEcAwbPq0GZTd5tSp0x6ZhcxAgDMC/tYTOCZZ+HfRlLfYTrrTqzhj2mFFdvFjybxP2Q7Tj/bFcz423j3RYeze78RxxdakDoNSbEny3izLJZctWx4aQuvzj1s2b7Hb7Cy7Q2G+rKxs2dJldruf3aDwshMcRhBkyOAh5Hpi6JAvbDZbJ4ABIQYkAT/rCUTZLJr2TocDBpM7p3ax1Prza6KIWiRb25fJiNhXYF54K57Z3XBzL87oJBVz2QXR1C7tnRHPfA9H+TgEVtJ7BB4aIli16mt4vhCQV012nLbZbOSvFgtCw0rul7BTOVgFAgwQ8LOesNTki6Z1EU19i9007W3MrGeAllcmMLNOtjya3QDZBuiJfe35tQTB2OdRMKtJPPv9juh1QTUSrxqE3UKL0jPI/8R0HB2bOg5ey2S3JQLNulAoJO85/RP726xwcyLQ2rUz+etnPWG4/o1o2ltsJ+W+Sf5qUxy1q/ZNaNVM7IfJkyrEs97Tnl7B4OoUhlsHOgzN9qzcX83qrt6qqqrIiCjyUSE0RDDsiy/VarU7I7C/cxKorKR4uWPM6BQEQTonHIg6IAj4WU8o947vcKhgcuf0LtbmSv80Bo7rLm5gMpbAESW6c18z9sVzHJekf94eo7kqzz/N6qZWBEHGpo6jFBMR4ZGFhYVubMDuzkugqKiIvPNMnjQF7ml13v4RCJH7WU9IFn0umv4mq0m6NNRfb3ZYn5aI537IXnTime9Il0fIMxPl24Ypd41R7EiWZyZKlvxLPOMt9iqlaVk8q6vuwlqmJIUme077ek3FR3l1itXV1cX0iCUfEkJDBDthNWteNRtvnLl16xZ555kyeSroCd40FzjSAQF/6glE1dJ+kGB8j3LP2A7iZn8XohaK53/EZDgz3pIs+pti82BN7kLTg7N2+VMccTMhEUUQZbO55obucqZq71jZul4Me0JTAs7uarrLzNfXLDU32pPU521lvxk9qGH7th3k40FoiGDQwMFKBRefafXA786dFcdxo9EoEokaGp4+fvS4srKqsrKqtvZRQ0ODVCI1mUyczZkNCD2BoqhKpX727Fl9fX1NTW1FeUVNdU1dXV1T0zO1Sh0wbwnhhF6vF4lEdXV11VXVrVHU1NTX1YtEIqPByFmLe3rm2Ww2uUze2NjU6nZ1dXmr27X19fUtLUKdTuev185do/CnnjAUHxPNeJPtpL+y0TVgzrY1OfMYDE2+sb+5+hpmUOKIhxOycAy3mVC93FyVp9g2jEGX6JgSz3nPVHbOd+Y4apekf9KmRu3JDN8tM2XBbDbHxsRR6okL5y8yVSNv7eA4Xvag7Pq16x0msUhM4rndbm9qelZWVnan8E6HxV13Ft0p8mUAe/KkYcvmrWPGpPTrm5gQ3zM2Jq5HdExUZHRUZHR0dI/YmLieCb369UtMTUnNzj6qVFKrwOLiu67uuW7fyr9lNlMsI0upJ0aOGHXnzp27xXc9So8ePSIBTvMQiqJ5edcWLkgfPHhI71594mLjY3rERkf1iIyIio7q0SM6Ji42vnevPgMHDMpYlFFYWEjZLgaDwZVPm+2a6hpKx0wm0638W20KOn9qNJoOLWg0mqPZx8aNHd+3T7+E+J4xPWKjIqMdUcT0iE2I79mvb2La+LTc3OPuLHRoltWdGo3m2NFj06fN6J84oFfP3nGx8a0dNeq52/FxCX379Bs65IvMzE011TWUwkIikThBtd24fl0ul3sdjj/1hCprinjGm2wnS/0dr+l4XdBSf0fy1Xu+hyZJ/0R7It3a+ADHMK+dcS2IqJoNt/Yqt30hnvmW7+7RsSBd/He7tN7VB++2Dfl721SnOjjZO1NslDp/7jylmBg9akxnuF+NouiUyVPd0Th79qwrf5vN9vDhw0MHD82dO2/woKHhYRHuCrbfP3/+Ak95Wq3WgoKCr1etHjJ4aHuD5HvGjE7Zt29/TU2tu79fR02rC6AAACAASURBVCSPdGchPi5BIqZ4HYlST7gzTr5/1sxZrsA92haJRDk5uTNnzIyO6kFeS5ujsTFx6QsXXbx4yd2o3PCkoU0R15/Lly2n9LOluSUhvqdrKdfth2UPXS1otdpz587P8CSQyIiomTNnnT59RqXyzxdtamtrd+/aPW7seI9OitAQQf/EAWvXrisoKLBYOv6Y9pXLV1xZuW4LQsNu5Xu/toLf9ASO2uWro8Uz32A5vYlZja4di4NtzKiWLPjQ17hmvaU8MA6zsPWaK6JuUWwZJJ71lq9+0mhB6bJ/4FaTj+RRvbwNVeWuUT7aZKo4hmEzZ8xyPS3bbwtCwy5eCP6bEwRB0NQTGIbdKbzTP3FAe1Y091TT+CvW2cQoil68cDE6KoamcZJsU6dMVyqV7VVF0OgJHMd1Wt2iRbTefCYBFRoiEISG5RzLbS/7ONMTGIbl5eW5+wAeufOOo3Gx8WfPnuPszRocw+vq6kaOGEXHN/I8/fomlpaUtr9dEYR6AtXLpUv/wfZgptg60HlB4WzDcHufeNabvoSm2Nzf2npbhbFVHDqMHcdQ65Ni9aHJHKgKdfbMDn2gvxO3WxSb+rlS9UvjduiwXq8fPIhiZcPoqB6qzvHpTko9geN4aUnp+PEefHy1/XVz8qQp7Uf0DlsHQZCLFy+NGjXa0++At6/UuSc6qseyZcslku/dcggOPaFUKtev30Dyp78TAv2NoUO/OJ57wnVI5kZPVFZWTZgw0fd2F4SGpY1Pu1vM+gduKioq5n41Lyoymj5bypwT0iYWFt5xPVmCUE8g8gZJ+ofiWa+zmvQ3d3Z4iWFvJ2YxSJd85n1Q87pqz69kz70OLVtqb8hWhopnv+m929Tt+Ibxfq6PL9poz69w9VC2Pq7DcLjf2dTYRHlPctVKP6/4zhkWcj1x4sTJw4eP+HiJF4SGXbl8hTIiHMdFQlFa2gTKa653GSLCI69cueqcKxDoesJut1+9etXHpiEhOSFtokgocrQa23qitKQ0N/c4s7FERUafOH7CYrFSdjwvMhgMhu3btpPQ8/HQhvWZOp3O4VgQ6glbc5l47tvi2a+zmOa8YRdTz+vxou3dFsFxzckFXkckXfa5tb4Qx/ywZA1m0ujyMr32nFbBee/YhBVu0dE4YBPVuFYkXRlCoxAXWQ4eOER+toeHRchkMi5c4UEd5Hpi4MBBvtx8dnCOjYmjM2vseO7xxH6J5E3j49HIiKj09AyDwUAQREDrCZVKNWf2HGb/Mm7Ptl/fxMvfCkG29UTKmFQ6K8u195B8jyA0PGPR4vaPb3w87aqqqkYkj3B+7JfcB6+PjkgeWV/fOpUtCPWEufy869jAxrZk8V9QndTHlvaoOKqTSpf/3ZtY5rwuXxdjE/pp3a3vgrTU35Gv6+GN//R0oWrfGB/Vkqt70uWff+e4n/8fMzqF/CRPTfHPS8t+4UKuJ8hB0Ty6cgXFzR6j0bht6za2L9BObydNnCwUCgNXT/z7hU+aX8R1huz1RmRE1LFjOTXVNSQWfJ+PSWLc90MzZ8xSqZhZ3xZF0YKCgl49+/juFR0L8fE9i+4UXbp4yV3mQJ2Pqb28RjzndVaTfG0UZvnPHR5uLqzGklzxV294EZRsdRiq+96zWG4cbl8LbtEp947yIgRaRb56Q5+/o32l9Pform5wViRd9hn9guzlNBqNlLdVV3+9hj0H+GaZbT0RGRGl15PNU8YwbPbsOe6umCztHzbsS5K5pXx+v+PRo0e9e3E0njngC0LDZs6YSdIQPNcToSGCBfMXMnLe5RzLYeM+CgnbmB4x6QsXucsQqHpCdTBV8tXrrCbljoFcfoISt5tlawReRKTY0gfR/OexIiN91EcjmNWgO7tEMr+LF7FQFpEu+RiRP/HaQ2tDkdMx2fJPvbbDYMHa2lp3J6dz/5kzZxiskeem2NYT8+cvICGg1WqnT5vuJM+TDd7qieLiu+QfNfULQP7ridAQwdo163z5djyKokeOZFPOu+KYf6DqCfmGaMlXr7GaNNmcrk9gKj/rRTjSBe8gyiaS66O/Dhnyt0vmvu5FRJRFNMeme/3qCqoRypb+xVGFbNkn/oLjWu/169cpz/naWgbWFHKtlM/bbOuJq1evugsfRdGFC9Ipm4P7DPzUE3KZvGdCL+5pUNYYEHoiPCzi5o2b7roi+X4cx29cv+n7RCJKkp5mCEg9gRqVkoVdJXNfYzXpb2wmb1Qmj+KYJnuSp+FIl35sa+HdRzIdWHDUbiw+IE1noZnmv2l5dM07+DiKKHd/4eCs2vOld0aYLZWdfZTypNVqtMxWymdrrOqJ+LgEdw87UBRdt249ZVv4JQMjeqJ/4oD169ZvWJ/pUTp18lSHvaW5ublfX3Ynq3qNOiD0RGiIoF/fRDHVMmUdwr95Mz86ismXQr1G3aZggOkJzKQ2PTguW/FXybzX2E7mauo3yjpsbC924naLfG2opxEZCrh+ndXT0Aw3Nknmv+FpXJT5lTv6e/1Bc8xi0Byboto73JfnJp5yIMm/beu2Nudkm5+9evYmKe7RocrKyrTxaePHjedDcvfGii96QhAa1qtn7+FfJk2eNGXp0mUb1m9o8+/Gdbd/Ed65c8fTR9GC0LDEfv1TU8bu2b2nqKhYLBbr9XqTySSRSCoqKo4cyZ49e87gQUN8f+uBET3B4PfAbDbb3K/mtemolD+jo3p8MXTY/PkLTp06XVNdo1QqjUajVqttbm7Ov5m/beu2lDGpfXr39X0aLKt6IiI8csiQocuXLb95I7+5udloNBoMhmfPnl29mrcoPWPQwMEePYNYuDDd09c9VCrV0CEeL8+aEN8zOSl5zeo1eVfznj59qtFoTCaTUqlseNJw4fyFlStXDR+eFB+XQNmI5BkCR0/gmOnhafmGSMn817hJdlmdRxdrXzJbG+9KFrzhUVyqg2O8HlN9cdWjsjhq11/bIFnwukehUWdO72J96od10D2KnWbmNavXkp+iUyZPpWmKMlvRnSLKuZ/kzjB4tKWlpUOHvdYTAwcMvHz5ikgkNps7Xie4w+ocOx89ekzn+ymu4Y8ZnVJ0p0gul7dfQNBZEY7jWq22sqIyY9FiX+5O80pP4Di+MXOTRx1JEBq2bu26+rp6x5uxTj5tNux2u0QivXjx0vDhSa6oPd1mT0+MGzu+tPSBu1tcOI5rNJr8/PxBAwfT9DmmR+zTp0/bcCD5abVaU8ak0jTuyNarZ++cYznNzS1WK9nSF2azuamp6cD+A7169vbIvmvmQNATOG6X1amzJzA/LJFJk9dxDlfaVh+dRD2IungrW/U3nrzQQdL1HYdwu0WdNdaj6OhklmdG4naKLyRR+saHDEuXLHU9Idtvpy9MZ8rPYNUTfXr3zTqU5bqEn6fE5s9f0J68uz3JSSMuX77i6Z+VFeWVM6bPjAiPcmeWZD+v9ER9/RP6y19GhEemL1zkTju6ayar1Xo0++jQIV+QMCE5xIaeSIjvuWvXbneftGgTiNFoXLNmLc3bXenpi+h33VOnTpEE3uZQQnzPbdu2abWePS1VKBQbvF3hNAD0hKnsuHTZ+5IFr3KZpMs/bNNF2PuJI1bJorc8ik5/ba3XcxLZC8SdZdxmlmeGexQgnczmyu99Gspd7Tzfvyjd7ctXjqvDmtVrmQohKPXEoIGDxWIx/Stye5j375fQv8e+atVqmoNK+4pal+6+cNGj++GOPsArPTF92ow245a7n3Gx8ffv3/dUeDm5qdWaSZOmuDNOsp8NPVFYWOhRH8Mw7Pz583TaWhAaVldH6144iqIDBwwiCdz10BdDh0kkEo98dpLHcbypqYnyIwCu1Tm2ea0nUHWL+kiqZCGnSsIxkim2xjjhsr1hEz6kM3w688g3ReI2rr9S5iMEW3OpdElXZwiMbKgOjvTRKz4UXzB/YfvT0nXP1i3bmPIz+PTEqJGjm5ubfeGj0Wj79qE1r7BHdMyRI9nO5bG9rrSsrKx/Yn/XJqbc5o+eyLuaR+mtI0Ny0ojq6mqvKTkK4ji+85tdNGt0ZmNWT8THJdzKv+1FIBiKZWcfpSMpdu3aRWkfx3HKZ6NOAnO/mqdQKChtkmdQKpWzZ3m2EAt/9YT12T1JxputYsIfSbnvC3LWDB41lRz2IMb018wVpxmsnTNTuryvJemveRApZbsvegM1+HrOcBa+u4rSqe5PrF27zl1ZT/cHmZ6IjYlzLADsKQfX/NfyrtGZChAmCD9+/IRrQV+2VSpV3z79nFd/yg2e6AkEQSZPpnXDoH/iAKmUscWFc47l0r+BFBoiYFZPbN26zbu/8h09ZMXyFZTtm5Y2gbIKkVBEc4rP3LnzKK3R773z5s6n9N+ZgY96Akds+puZ0pUfStJf9VdSHxtPn7iPOfVXVtAPU7b6E8wYkIMojiKqfUPoR0onp+pIio/w/V58yWKK+RMZizKYcpJXekIu77gb05+PmZOT6/t1c0LaROfV0N1GmCA8+0i21/ftO2y+srIy+mMkT/REQ8PT6Kge7ig59w/oP7ChwYM5hh3ycd1pt9s3bMh02qfcYFBPDP9yOPkcUlc/O9xuaWmhnIobFxvv+vXUDu0czT5GR/hOnjRZrWZmMW+HGyqVatTI0ZTMHRl4pycwq0F7dp5k0Wt0hhP28mjOfNVho7KxU52dSj8Q7ZXlbPjAjU3rk1uSRUxqROmStxG1T7e7uQmcpJbVX68mP1enT5tBUtyjQ7zSE2Zzx9NpaeqJsanjPIq9w8zV1dXk8B1HZ8+a48tShh1WTRDE+XPnKUcahwM80RM03xHNy8tzF7LX+xEEof+hV6b0RJggPP9mvtc+Owvu3buPspuVlpQ687ffQFH0i6HDKI0k9uvP4G0hpxs6nY7mWiP80hOYVa86OKx1yFn0Z/8m3eWlTppsb8i3RNIMVrrsbcysYdsfFu1jqCp7DM1gaWXLeNX0MIdFh9k3vWXzFvLLRGK//kx5wR89ER3Vw92tBZp64gQTTx+WLl1GDj80RBDTI1YiYeXjOBiG0Ryh+aAn5HI5nakAC+YvoPxT27v+/Pgx3Xd6mdITAwcMUqlU3nnrWkqn01EuJLp58xbXIm22Hzwoo+yooSGCkydPuTut2hj09OeJEyfoOMAjPYGonyn3D5Zk/JkPSZdH8QVCT9uDJL905Xs0Q1YdGUViJyAOoQaFbPVHNOOlk02dPTogAnfn5OGsw5Qnqo93XJ1V80dPjBrpttVo6ommpmfOuLzb0Ol0lDPYwwThuTnHvbNPp1RVVRWdWxR80BNXrlyh7Kj9+iaaTCY6gXuRB8fxr1dR3MxzeMiUnpg2dRrJ4iL0Q0AQZNLESeT0UlJS3RnEcXw5jUkYEydMYsTbDt2wWCx0PiHLGz2BIYrtPSSL/8yTpL++ukOsjO/ErEb6IZuKqacBM+4hwwZxXHNiEv2QqXMufQOzkH0ukmH/mTZH5zLd8KSBkWptNpuMk3+UT9kzFi12FxEdPdGrZ2/f/w5raGig/JZVn9593a3j6c5/T/cvW7acfKQJDRHwQU+sW7uO0s/VXzP2bnOHGG02W1xsPKUbTOmJ/fv2d+iGFztXLF9F7naYIJzAOzZsNBqThieTFw8PiygsZHeJv+qqasoJHLzQE6imWfFNHPXIwaHa0F3j6P6EXVpDP3Bb8/2Oe1xA7bW1lNIPmU5OQ/HugALwPWcrKirJrxShIQI2Hkh/zwlGf9CZlHD06DF3ddLREwuZWOPrxo2blOSXLVvuu3BxF6lj/6NHj3pEU0xy5IOemDiB4i/s0BBBVVUVebC+H12zeg1lqzGlJ/Lzb/nusMPCgf0HKd12N0dHKpVSfhG+T+++nq5b5WlodGSN//UEbjcr9w+ULPkTr5Iuj6Npj+bHV+kGvvTPgT15wqX/qg4Ppxs1jY6h3NObwFAX84G0qVarKS80W0ifrfIt2m++2UkZUUVFhTu36eiJHTu+cVec/v716zaQ+ykIDfNoLWT6VbvmNBgMw4Z9Se6J3/UEjuOUa2J+OWy4a1wsbd+8mU/OisH3RcvKHjIVxcmTJynddvdYs7b2EeWNgbVr2L0z5OCwYvlK8ij8rCcwi051aKh06Z/4lrQXFzLVk8jtmKrO0IxduZO7JbbIffb9qK0hX7rsNZqBU2aTb/gU1bMyY873SCkt4DhO+RSfwVc8KP3xMQOCIJTLJMfHJZDMQqejJw7sP+ijnwRBUL4FN2TwULZvThAEgeM45RqpftcTzc3N5ANJaIhg//4DvjcKpQWpVEbpCVP3J0hUL6WfbTKcOX2G0m2dTtemlOPniRPUWqSmprbDsszuLLpTRB6FP/UEjiH6vKXSZX+SLn2Fb0l7hrGPMJG3qKk8h2bsnN0yIXeYkaOYQS7f9DeagVNnW/GGXVTGiGN+MZKZuZH8LE2IT/B6jWeOI2pqekY5KeHLYcP1eoM7x2jpiQO+6gkcxylXByKZ5OHOee/2Uw4YftcThQWF5F1UEBpWW/vIu/A9KoXjOOW7EkGmJzZTvQIWH5fAgfAlCEKv15MvmuJHPYEbCjZKV7wqXfYKD5M6m4t7dwRBGEsP0gzf/PiSRycerzPjmPpoMs3A6WQzFu/gdbykzpWXl5NfrENDBLm5uaQ2+HIwj8ZykzOmzySZiM6NnjAYjJTMd+7kaPpzbU0tuTN+1xNHs4+RexgXGy8Wc3SPcFF6BrkzQaYn5s+jWKFyzOgxnJ3/5Hcf/aYnbM+KZGvfozNU+CWPclcPblrIVHaEZoBYwN7S75CkuSKXZuB0sqmyBndYS0Ds1Gg0fXr3Jb9EDhgwiPxzwzyJdOaMWeSBtGqjHDJtxI2eoHMDPzeXxTdFXdtLLpeTQ/O7nsjcQHELrV/fRKVC6RoUe9uUE3SCTE+MGZNC3j1mzpjFHu02lieSvvjqHz2BGqSy1V2ky1/hbZJlcvR9UXPNWToQZKvewFFbm6YN6J+Y3SRd+Sqd2GnlWfU6gSEBCsRms6WNTyO/ZISHRZSWPuB5gM+ePaOcOBYaIlAqydYI4kZPPHnyhBx4aIjg3Nlz3AC3Wq3kzvhdT6xcQfG648ABg5hd5pmE/PHjFGsrBZme+HLYcPLusWA+R7P9CIKYO3ceiTP+0RPq3FHSFa/wOq38M27veD1gko7uxSFb8106HGTr3sVRuxf2+VxEdbAfndhp5rGJy/kcLLlvdD6iuHzZCnIj/j2KouiiRRQ3okNDBNOmTSf3kxs90dDQQHJZdBw6fYqjD+/p9QZyZ/yuJ1at+prcwwH9BzKylCR533AcpVwCLsj0xPAvk8jhz/1qHh1ujOQhvwHJvZ7ATWWHpCtf5n+yy3z92C6d9kN1QjooZOuDUE/ormXQiZ1mHlN5Nh3g/MzT/KyZfKJTaIggPCxCJBLx0/9/vy7R0tJCOVFOEBp2+fIV8hC40RMikYj8Gh0aIsjOPkruKlNHxWIxuTN+1xOUq8L36d1XLpczBYTcDuX8xCDTE2PHjifvHlOnTCMnxuDRsWPHkTjDtZ6wSypka9+UrnqZ/8lcw8lfJzguW/82JQ3Z+reD7/6EpSpHuuoVythpZtBfW8TgacO9qZkzZpOcqI5DU6dM5e0sCsp30x3rPAqFQnK23OgJo5F6PuamTZvJXWXq6N3iu+RN73c9kXMsl9zD6KgelC3LFK7JkyaTOxNkemL+/AXk8XKz8oej+Xr17E3iDLd6AkPUuck0hwe/Z9PfXsPUCUBuR7E7nDJY2epXuXn+Qu4qs0dtTQXS1a9Sxk4zg+bEaALHmPWQS2uFhYWU31uKioy6d/cel17RrKuwkOJ9Qsc1aNbM2ZQvtnGjJwiCiItNILkyhoYIZs2aTTN8H7Pt33eA3BO/64miO8XkHv5bLN6/z8XqvQiCREZEkzsTZHpi69Zt5PFGRUbb7Vw8DZdIpOSecKonjKV7pav/JP365YBImuMjCHcrqvt4/fh+cXXOcDpA7IrH3y8X8L/ssirZujfoxE4nj+pw/4C+haPRaBL79Sc/Xf+9pHH/xAHu1r3xV4dAECSFagp6aIggIjxSLBZTOsmZnpg0keLP3J4JvSjVD2U4lBkwDJs2dTp5u/tdT2g0GnIPQ0MEG9ZvoAzW9wyNjY2UngSZnrhymfpLbAW3C3xnS2nh0sVL5PC50xOoXqTY+hc6AwNP8qgOxHJzS0B/cymdkE2Vbj95QNkP+JkB1bbINnShEzudPMq9UThi4WekNL06eDCL/HR1HF2csRhF+bK+OIIg69atp+P2sqW01rDnTE9s27qd0u3i4mKabed1No1GM3jQYHJP/K4nCILo26cfuZO9e/Xh4GHchfMXyN1gcL1tnqyPWV9fT/kR2jmz57CtfTEMW7ggnRw+d3pCn79MtvrlAEqK7Z9iJi7eqDbXnKCDRX0qxetrFj8LYhatfGNXOrHTyaPY8TluZ+tbydwAxHF8QP+B5Ges4+iNGze4cYmylsuXLtNxODRE8PAhra8hcKYniouo7+FPSJvI9mW6oqKCciouH/TE9GkzKBv69q3blB3GxwzpCxdRuhFk9yfkcnm/vonkUbf2EAm764npdDrKLwNwpCfs0krZhtdla14KpLT+NUT1xMfeT6e4XV5LB4t849s4YqVjMFDy4IhFvqkrndjp5JFv6Y7b3K7iHChMTtJYq9/xrgcfJEVpaSnlSlyO6+CsWXNo3lPhTE80P2uOj6OYQhEfl9DU1MRe50EQJDVlLPlQwZPvlW/fvoPSz/R0dudENzc3U67mHnz3J6xW65jRFEtahQnCz7K8XMrFi5coV5fhRE9gqPbUCDpDAt/yGMv2sXcpeW4ZQ+RbutGJ3S6h9Rfec8v83sIxRL75XTqB08kjz3wLt3b8QR1+Y/iedwaDgfKtS8dlvWdCr8bGJrb/ev6ec9//UV9fHxcbTznG/PvORJ/efd19O/H7Jlt/caYnTCYT5UpBoSGCzWy+5XGTxjfTeaInCgoKKNs6KjKa5Etv7dvaoz0IgkydMo3Sh+DTEwRBbKT6xE9oiGDQwMHsPW/S6XR0TnYu9ASieSbf1EW29qWAS6qj/Tzq8V5nNpZ8QweO6cFur6vgY0EMlW95l07gtPKs/xNm0fIxTA99evz4cVQkxQx2p6QoLr7roXlmstfU1A4cMIjOxT00RHBg/wH6uoczPUEQBOWyCqEhgqjI6AcPWPnaHIqiY1PJ3uZ34uXD8w6DwUD5YkVoiGD4l0kmEyuPHQsL70RGRDmZkGwE2fMOgiCePn1KEq/zUOaGjSRfxvHlzN+4cZOzFpIN9vUEjmpOjZCt+2NApvUvY2a1L81As2zrTILNXSgRqY/1p2kwILLhqF2xpStl1PQzYAZpQARO6eTXVMsROk/puNi427dv03yUQFkvnQwYht2/f59ydp7Tw1EjR3v0ZxOXekIkEtGRbqNHjdHr9XTg0M+DIAidJwgOjHzQEwRBbN1C8eKiw9usQ1n0OdDMKZfLaU4tCsr7EwRBTJgw0XlOuduIj0uoqqqiiZR+tqqq6uioGHeVuu5nXU/YxCXy9S/J1/8xQJOljpM1/DFEk9OfGtGGV+xKLj4KTL+r+ZITt5sUW9+hjpp250F1zb74w5+yGo2GfN0Y13M4KjJ629ZtLP1d0p5JVtbh6Kgerg6QbCfE93za8LS9EZI9XOoJgiAyFi0m8d9xSBAaNmf2V8wSPn36DOXTaKdjPNETGo0mIb6n0yt3G1GR0XcK75A0saeHzGYL5cu9rs4E3/0JgiCu0fhyb2iIoFfP3syuovvtY804V7wk26zrCcP1uQwOGNyb0l+b42nv9y6/ufIQneg0Of2D5sNgmFml2NKFTtQ086CaRu/g87BURUUF5WxB1xN71qzZNTW1rAbS3NycsWgx5aJbTq/CBOG5ucfpP+lwOM+xnrh7915YWLjTZ5KNzA2ZjEgKDMOuXbsWG0P3Gs2T+ROOqS10Xq8IDREkxCfcu8fM8lZ6vT4jg1rzuTZcUOoJlUpF86bguLHjFAoFI5eClpaWUSNHu7Il32ZbT+CKnR/IN7wYuEl1OIaRhqE0gmOIYsd71KA2v2YXl1JaC4gMqPaZYssb1CHT7j+oriUgAqfp5O7de8jP3vZHDx48xMiY18ZDFEUvXrxI/7aEw7H167xZ4IhjPYGi6BdDh7Un2eGeuV/N8+jZTRuMBEHgOH727Dn6mszhBk/uTxAEUVNTS/O2iiA07E5hUXsCHu3BMMyjOxMOXEGpJwiCOHnyVIfdsv3OHtGxvi9/3tjYSHNuuNMBdvWEueqwPPPFwE6b/oRoWXxhzPXsMlcdkW98iRKXJrcvgXGxuqqrb2xsI/IqxebXKOOlnwE3k30Im40QWLWJouj6detpXr6dp/TIEaOyj2Qz9bzfZrOdP39hbOo4yjUSnA44NtLGp3n3AWuO9UTrl8yaW+LiaL2oEhoiSBufVl1V7elNF0c/UalUX6/62lMxwZ/7E44o6ExidfSBmB4xW7Zs0Wm9fOuqqKh4+HCKT2u26XWOn8GqJ1AUnZBGPYvCASGxX//Tp057tw43giA5x3J69+rTIV6SnSzqCRyxKnd/RH8w4G1O7eWJrA4bTuOYRa06+C86HIylWwkcdxYM0A2bsEi++U904qWVZ9MruDUY3u9wbU2j0ZhG+wriep73TOh16NAhYYvQu7+nbTabTCY7e+Zcn94eX1NCQwRjRqd4dyHj8n1RV86bN212pUe+HRkRtX//fqVSSV9VGI3Ga3nXPXrG4eoDf+5PEAQhl8vpv9oTGiL4YuiwyopK+i99YBgmkUhWrVzlSsCj7WDVEwRBFBUVeaTsZ82c1djYiCCIa28n2UYQ5PHjx2NTqddE6bBFWNQTdkmpfMuf5BtfDPi05c+YSUbSBgwesjw6TgeX4pt3EWUdg/X6xZS1/qx80x/pxEsnj2Lra8GnJwiCMBgMM6bP7PDspdwZFxufMiZ1w/rMe/fua6VuawAAGqdJREFU22w2ylZGEKSqqmrvnr3jxo734q8Thz+J/fr7cq+V+/sTBEFoNVrKtf/a0E7s13/pkqUPH5aTU5VKpbt370lKSqZcMrmNfdefvNITOI7fvHHTo9tmYYKIkSNHHTp4SKkkW3EYRdEHpQ8WLkinOVHAFZHrdhDrCQzDtm2jXifelUZsTNykiVMuXrxELvEtFsulS5cmTJjoteoNDRGwqCdQdYNy32d0RgK+59n0ouXxKfKrBoNHNWeH0wGiPPgvVE/x6WcGvWLDlKlkE51IaeZRbH8Lt3l5Z5WN6Bi0qVAo08aneXQFd72gOLajo3qMGjl6yeKle/fszcnJvXD+wvXrN65cvnLy5KlDB7NWrlg1Ic2nS4mjltGjxvi4opFf9ARBEI1PG3v3IvsWc3ukjj0DBwxcsmTp0eyj16/fuPPtv1u3bp06eWrTxs2pKake/TXprgpe6QlHx966ZZsXHTI8LGJs6rgtW7aeOXOmoKCwlVbhnbyreVlZhxdnLKFcVdodnzb7g1hPEARht9u9mFMSGiKIjuoxY8asvXv2Xrp0qbCwFX5hQeGF8xf37Nk7a+ZsT2dHtWHu+MminmidfGSSK/f+Rb7pD4GeNOeSGRweyE0hqlrFtlfpENOcGkRuiudHdVcn0QmTZh7Frm5BsN62uyazWCzz5s3v8Bzmz85xY8drtb4+cvKXnsBx/ML5iz7CFISGOZKPdtoU56GeMJvNlItAt4mizU+WWAXr+hOuVwaZTEb/ffI22B0/WYLPrp5oFVPiYsWurvLNfwjopNj2J1TT4NqirG6bqw7Jt75Mh5jmzFDMJGfVGfaMq7L+SSdGmnmUBz4L9O+BkaM2mUyZmRtpLhHY4UWEvZ2C0LCMjMW+iwl/zZ9wks/KyuIhYR7qCceTuPHj0tjrVF5bDu77E46+Wl1VTfPTOV5j9KIg63qCIAhEVafY+ZZ8yx8COukujSEI7qZA6q9Po4lLfbJfIH6nGzUpaAZIM5vq0OdY0M3HdI5zjg0cx0+dPMW3AS8iPPLYsZw2rnr901/3J5yEMzM3MvKQwtPLMcnjA37qiX8v2qhUKL2eZ+MpH9f8JKw6w/0JR1+tqqqms7qrKzdGtkngc6EnCBy3NuUpdr1Dc2DgZzbF7q6o1rOV/ry+pBIEgZmVqtx4mihUR0Lt0hJfquO+rPlRLs3o6GdTHvrc1lLAfSwc11hdXU3no5SMXDsojYwcMbKsrIzBRS/8qydaTz0MO3L4CGXgzGYYNWo0yceueKsnHK97TJwwiVka5NYEoWGZGzJJ8nSG+xOOa87Dsoc+PvggwdjhoYT4nnvcr4vDiZ74NnS7tFS5r7t86+8DNxnvr+Vy5MAtatWRf9LFtf0lU+XewLnhj2svj6Ybmid9RrHnnVZphWNctpRf6tq1cxedxY87vCgwsjM2Jm7lipVMLXThZOh3PeHw5MaNG9xcqcME4ePGjlepVCuWr3TXLnzWEwRBWCyWBfMXerGuhrt4SfbHxsTt37ffYDCQ5Ok8eoIgCJVK5eNEFhKSbQ717dOvsKCwvq6+zX7nT+70BEHgiLJGeegv8m2/C9Ck2PUGauD0lQpE88QDYjteUuVE2MS+rknnvLKzt4FZtarDn7PUDRS737S15LPnPE8sYxjW2Ng0d+4858nM2YYgNGzmjFn19fUM3pZwUuWJniAIouFJAwdX6i1bthqNRoIgAldPEARhtVrPnT3XI5rWV6O87qi9eva+f791GW+j0UhipFPpCYIgNBrNls1b2dZzKWNSnz17RhBEfT0v9ETrFQNRVKqy/8XSQMKBWf3NaRz/7YuoHqmO/J1+aIpvXtLljbOJCr2eVIEahKbKnZrzQ/U3pyMqVj4JgaofK3a9Tj8oT3Mq93dHZKx8Y9o57PFno+hO0bSp09m+lDsu32GC8AlpE69euUp/hRxPQfFHTzj+8t6xfQcbE98EoWFJScm3bt128gloPeGI4lHto8mTpviy0oY7lRAV1SMjY7FzxVXQE85u49j49qMw10ckjySZ3OCOLeX+hPieO3fucn7EmEd6ovUlUrtJc26AfPvvAjEp9r7F2dpWzh6DWzWq41Ge4dr5svLwJ6bq/R6pCtym19+erdjzhnzH7x3VqXMinG4wuGGq3OVZOJ73FtXhT7lvKQYReWTKbkeeNjydNWs25aXBlwwT0iY2NjaSr4rjkdsdZuaVnnB8cUMqlc6ayTDbvXv2WSwWVwJBoCda/2JEkMLCQmafxCX2619dXe0cz+D+hGu3cd02mUyHDx+JCI/y5TRvU3ba1Okajcb1TiS/9ETrjCeb1lA4T7HrFfmO3wVc0l5OxjG6y5e6NrYv25hRostLUXzzoqe4lHvf1J4fZLy3zFKXa5feRw0iHLX+xxMcxSwqRFltbThjvL9Se66/YudL7ez/3iNFQidGHENU2X9rVxHzPUF3OQlHzHRcCpo8jY2NWYeyGLxdER4WMXHCpL179z1+/Jj+8tK+8OSbnnDGUlVVvWrlKh/vVQwZPHTb1m1NTR18Eig49IQDl8lkOnvm7JTJU325CR8ZETV16rTz5863EV6gJ5x9ssMNiUS6b+++Eckj2ygDj37GxcZnZCwuKip2lXGO6ninJ751CzeVb1fuekWx43cBl6wNZzpsSLZ3mh9uVux6mQFcO/+o3PNnOnaU+95i/C1Zm6iATtWM5DHdX8l2o/DTvtlsPn/+fNr41iUvoyKj6b8AGSYIj4yIio2JS04akZubazAYOA4Qw7Dp02dEhEeSpEOHsjj2ylmdzWY7cfzE4MFDoqN60KQaJgiPjuoxcsSoK6TPiVat/NpdyL179ZFIJE4fOty4ffu2u+KO/dOnTW8/NnRoisGdYrF46ZKlsbFx9F9yjgiPjI9LWLJ4SVNjB6rL4ZvRaCQJduXKVZQhtLQI+/TuS2IkIjyysrKS0g7NDOfOniOvKyI8UqdjeHnfhw8fTpo4OaZHLE1VJwgNi4qM7tun347t35A486T+ibtYIiOibrs8wqMJx5ntBeeWdxt2yV11bojim98GVtKciOB4FsV3eHG75K7mTE+OcO38g7lm33dVM/Q/juvzp3Lk/ze/Ve7vgmi5W4iMIUZMmtHpdPX19UV3ik6fPrNjxzdLliydMX1GakrqyBEjhw75IjlpxOhv31RclJ6xZfOW3NzjBbcLamtrnQ+qmXSFni0cxxsanlaQ/pPJOPqejjuXEQRpamoquF2wb9/++fMWjEgeGRsT5/roOiG+Z3LSiPSF6fv27S8sLGxubqYcy5sam0rd/Ct/WE75+RWNRuOm9H9219XVcXOHqT00vd5QWVl18cLF9es3TJ06bUD/ga7yIjwsIrFf/wlpE9asWXv69Ony8gqNRtPeiOseFEVJgu3w9o9rcccE0urq6grSf455sm0KevdTpVKRVtV6kLKHeFM1TsjlipKSkhPHTyxfvmL8uLQ+vfu66uDIiOjBg4bOmD5z8+YtV65cefTokdlMcU/XbDa7g/+g9AFl25FE4aueaDWN2fX5kxS7X1Ts/G0AJeO9pQSOkqBh8RCOGR9mqg6/r9j5O/aIqXP+YZMUMx4FbjeqjnzMntvtLauPforbW+fPwz8gwCoBBEEMBoPJZKIc+1l1I1CMm81mBy7XZ/OB4nyg+/nvrwwajUZK6cBxmEzoCYLAUZtdmK868qFi128CJSn3/NEu9t/SSTiOGcWmsvWK3b9jnJhy70umsnWYhexLgF73M1PNHsWu3zLuM7lBS+1+rx2GgkAACAABIMABAWb0hMNRzCjR356i3P9n8rGBP0c1p6Nxm54DyiRVYGaZsXSV5mS4Ys8ffCejOtRVnz8RUdeQ1OjLIcyiVB58w3c/PbWgzvk747NKfeEAZYEAEAACQKANASb1RKtpHLOratTHPlXs/k1AJP2NFD9NpPheQ+CoDdU81t+aqNj7B++4qQ6+YareiSMmVsMxV+/0zj3fSxkfcLq26feaB34AASAABIAAFQGm9cS39eF2g6V2v/rEP5V7fsP3tP9la8MJKkrcHcdtOpu4wFy5VX97suZ8L1V2d+W+Fzti+FtVVhfN6Sh9fpq5crtdeo9Abax7idn92Kaqw10xk5T1GKECIAAEgAAQ8IoAK3rC4QmOWk0PVqqy3vx2OPy1cg9f077fI2pWFpH0qkXaFcJR1Ci0K8ttkiKbKN8uvYtoanE71y8BEgRufLjGn42497fWpyfb0YEdQAAIAAEgwAsCLOoJR3yoocXyaK8652Pl3l/zNmlOh8MbBOT9EdU8VmW95t8W1J6LJXcSjgIBIAAEgIC/CLCuJxyB4ajVXL1Dc1qgOviKf8ckd7Vrrwzwxx/9/mp3D+vFMUPBFHfouNxvV5Z76DpkBwJAAAgAAS4IcKQnHKHgiAlRlusLp6oOvaLc92u+JcPduVwgD8A6LE+PK/f/ng/tZSicHID8wGUgAASAQPAT4FRPOHFiNq2l/rD+ZpL6xF+U+3/Fl3TgN6aHq3GM/YmNThCBsIGZperjH/OkjTRn/gW3kQKh14CPQAAIdDoC/tET/8GMYwRmR1Tl+sIpyqwXlQd+6f908DeWOqYXqA7wTqW7Ndr/7fJd31AdfgkzPAtwouA+EAACQCAICfhVT7jyxOyIutraeNJUvlpfMF5zMU59/APlgV9xP5Kpsl601H7jt6W4XZnwYNtcs437JiCv0fLkCA/AgAtAAAgAASDwPQK80RPf8+o/P/R3JikP/tIPKet3lieHQVIg+gbVkVf8wJ+00XXXB3fUWWAfEAACQAAI+JMAr/UEahSqj7+nOvRLP6TDvzNVrmX8S9/+bGoP60a1j9S57/iBPGVzH/4DrL3tYWNCdiAABIAA6wR4rScIgjBVrPbbkJb1a1PZEtzO8CftWW9SJirArCrd5Vi/kaeSFIi6kokowQYQAAJAAAgwRoDvegJHbdqLYaqsX/or6W8lsfpFDMZakjlDuF2nvdLDX8Dp1Gt9msNcuGAJCAABIAAEGCDAdz1BEIRdkq86+nvV4Z/7K2mvRKOaKgZgB4IJ3KbRF4xUHf6Fv2hT1HvkV/r8wZhJGAgswUcgAASAQCciEAB6giAIfeEYimGGbbVx9Pc26e2g7xc4atVd6+Vn1KRNabw3FcfsQd8QECAQAAJAIOAIBIaewBGj9uI/VEd+7sekznnZ9DADt+sDro1pOowZm/U3+6uO/MKPkEmq1pzubms515lnyNJsR8gGBIAAEPALgcDQEwRB2JrPqI7+UpX9c/8m7dVIzCwhcNwvrcVepZhVrr30L/+ydVe7OudFQ/E4HLWyFz5YBgJAAAgAAR8JBIyeIDDEVDZfdfTnfk/qU2+YazODSVLYJNc1Z9/zO9gOHdDd6I0oSwkM8bGjQ3EgAASAABBglUDg6AmCwDGbLi+qw1GH+53aq5GI8n6gv/qBo2ZL3XZVzu+4B0heo/r4i7prMdZnxwkCY/UEAONAAAgAASDACIFA0hMEQSDqh6qcX6qO/R8fkvrEH433JuCohZGW4N4IZlXo8/uocn7BB5jPfcj5taE4FdFWBS5Y7psSagQCQAAI+J1AgOkJgiCsDQdUx3/zfPjxt7bQnOtqqd+O27V+b0v6DuCo1dp4RHPuXb5gzPmF5sLHhqKRlid7UJOIfiCQEwgAASAABHhCIPD0BIGj+jvDVDn/x690/DfW5hMB8fgDtxt0N+L9Qe9nqtyfu6RfaM511RePsTQexmyBpMZ4cuqCG0AACAABXhEIQD1BELhdr8vv6Y8RkVzE/Ex79Z+WRxtaXwDh5T/MLDaVz1WfetkP6I7/2ia6gBqfoYZG1PgMsypw1MxLSOAUEAACQAAIeEMgIPUEQRCorlZ95lU/jIs07ouoT75oqlyMGp7iGF9eccSsckvdZvXJF/1FzFCU5E33hDJAAAgAASAQIAQCVU98OzezRHPmZXXuT/mZNKdf1t0INz/ejNk0fuwMqOGpsXSi9sI7fqSkOfMyamzyIwSoGggAASAABNgmEMB6onVuZuN+9YmfqY//lNfp9O8N90bZWk6ghnocs7Hdoq32cQwztdjE5w3Fw9Qnf+FfOJpTv7VJr3ARNdQBBIAAEAAC/iMQ2HqCwFHLk+2aE/+rOfFTvqeT/6c9+0fdlQ9NlQsQXTV7LW6TXNEX9NGee0Vz8ud8YGK8P4rAUfbiBctAAAgAASDABwIBricIonXdzPLZfBg4PfJBe7GLoTDRXLXA9izLrihEjY2EV5MtcMSEaCttwpOW2pWGwkTt2T965AbbmXXX/obZVHzo6OADEAACQAAIsEog8PXEt3iMpeM1J3+qOfn/Ajid+j9t3ieGe0mm6qXW5qN2xW1UU4WZhThqxFGzI2EmIaIusYnPW+o2Gu6N0F7pzud4tWd/h2rKWO2+YBwIAAEgAAR4QiBI9ARqqNOef0lz6n8g8YXA6Z/Znh2Gz4Hy5DwHN4AAEAACbBMIEj2ByG9oTv8vX4ZSkDWn/sdcPZ/tvgv2gQAQAAJAgD8EgkRPmMqnak7/BBJPCOhvR+GInj+9HDwBAkAACAABtgkEg57AUYv24is8GUrBDf2tEBw1st1xwT4QAAJAAAjwikAw6AlEcVtz5ieQ+EBAe+lPmFnIqy4OzgABIAAEgAAHBIJBT1jqVmrO/gSS3wlo895E2Vxag4PzAaoAAkAACAAB7wgEvp7AMeO9fppzP4bkZwIXf4loH3jXC6EUEAACQAAIBDqBgNcTOGrS3/pEc/7HkPxIQHv5t3ZlfqCfDOA/EAACQAAIeE0g8PWEXaPN+7Mfh1KoWnvtVURX4XUXhIJAAAgAASAQBAQCX09YxZqL/09z4ceQ/EJAe/nXiLYkCM4ECAEIAAEgAAR8IRDwesIuv+KXcRQq1Vz4sf72XzFDnS/9D8oCASAABIBAcBAIeD1hfrJac/FHkLgnoC8Ox+3a4DgNIAogAASAABDwkUDA6wljZZrm0o8gcUrg8o9NVWm4XeNj54PiQAAIAAEgEDQEAl5PGEoStJd+BIk7Alf+19qUGTQnAAQCBIAAEAACjBAIeD2hL+iuvfwjSNwQ0Bd8gKhuETjKSOcDI0AACAABIBA0BAJeT+huvqy98l+QWCdw9SfG+zGYVRQ0XR8CAQJAAAgAAQYJBL6euPFL7dUfQmKbgOlBHIFZGex5YAoIAAEgAASCiUDg64m8/2Z7KAX72qs/ND3sG0z9HmIBAkAACAABZgkEvp64/hNd3g8gsU3AVDGI2Z4H1oAAEAACQCCYCAS+nrj1B921H0Bim4D5UVow9XuIBQgAASAABJglEPB6Qn/nHbaHUrCvu/YDa+PXzPY8sAYEgAAQAALBRCDg9YShJFR3/QeQ2CZgk2QHU7+HWIAAEAACQIBZAgGvJ0zVybrrL0BimwBqrGa254E1IAAEgAAQCCYCAa8nLE8zdDdegMQugVs/gzWsgum0h1iAABAAAowTCHg9YZPl6G6+AIlVAsaH0Yz3PDAIBIAAEAACwUQg4PUEZn6iy3/Bb+nWD3W3fui32rkK3Nq8Kpg6PcQCBIAAEAACjBMIeD2B21X6wl/qbr3AfTLc746oLuKYGdHesTavMJZH6wp+yr0brNd4+8eI9hbjPQ8MAgEgAASAQDARCHw9gRoM999lfUxto1cKfmKu7o8j2jZdAcdMdlm2sSJWX/xH/Z1f6G7/kGvH2vjJxE998Yvw2Y42DQ0/gQAQAAJAoA2BgNcTBG43VoTrbr/AWdLffRVRniedn4jjiAY11SLq85bGBcaHIbrCH3PmHuMVGSsiSINt06PgJxAAAkAACHRGAoGvJwjCUp+iv/0CB8lw7xVr0wICRzzuKTiCGitskgOWJxNNFeHGsr8Y779lKP6DvvAnHLjtYxV25RmP44UCQAAIAAEg0MkIBIOesMuz9QUvsJ3M9WmYTUQQuK89BEdx1IgjKtwmxixPUf09uyLHJt5iaVpgrksxVfc2lQuMpR8ZSz80lnQx3n/1P6n0XWPZp2zH2N6+4f4b3ugnXxlBeSAABIAAEAgwAsGgJzCbWH/n/9MXvsBGMtz7vaV+NGp46P+Gxe3mx8PYiJHEpvXZAv8HDh4AASAABIAA7wkEg54gCMJYGU0yKHp56M6PLU+nE6iBP42IY1ZjyZtehuON3voBaijhT/jgCRAAAkAACPCWQJDoCbtsl/7OC8yk4v8xP0q0y7O+fbrBu4ZDjQ8N93/LTKRUxExV4fCwg3c9ABwCAkAACPCSQJDoCcxUZbj3M33RC96mHxru/8pY/p5N+DVuV/KypZ47hRqKDfd/7m2kdBEZ7v43ZhU/rxW2gAAQAAJAAAi4JxAkegLHTMbyLvriFzxNhtKXLQ3jENVpzPwYx8zuQfHrCKI+py/+L0+D9Si/uS6RXzGDN0AACAABIMBjAkGiJwiCsIrWUYyX9/7HUPqisby7qSbM0pBkl+3GLPU8bhoK1xDdTeODFylC9lxg/cfg3R+h+iIKD+AwEAACQAAIAIHvCASPniAwi7lukPlxn+9Sf0tDiqV5nk281q48jhrLcZsQt8txVE/g9u/CD+z/UWOZoeSnhrsvMJ4sTVMZeDM2sOmC90AACAABIOABgSDSEx5EHTxZMZvQ/DiBWT1hfPgabpcFDyOIBAgAASAABNgnAHqCfcbs12Btnm24/1+Gey8wkX5gk+1k32WoAQgAASAABIKKAOiJoGhOHEF0eaaazwz3X/AxWRq+gHdEg6JPQBBAAAgAAU4JgJ7gFDerleGo0fpshrHs115LCuPDlzBrI6tOgnEgAASAABAISgKgJ4KtWTHLY0vTOEPpfxtKXvAslf4I0eUFGw6IBwgAASAABDghAHqCE8xcV4Jj5grL0y+MD39PX1LYxMu4dhPqAwJAAAgAgWAhAHoiWFqyfRw4iiMqm2SVoewFQylFMtfHEritvQ3YAwSAABAAAkCADgHQE3QoBXYeHDMj6lxr02hTVRdj6Qvtk+VxKI6ZAjtI8B4IAAEgAAT8SgD0hF/xc145Zmu2SVaYqt8yPvyJsexHxgcvGCt/hdvlnDsCFQIBIAAEgEBQEQA9EVTNSTcY3IZZG1D9dUS1B7MG8KLjdOOFfEAACAABIMAygf8fLYRdywnE4YYAAAAASUVORK5CYII=;" vertex="1" parent="1">
          <mxGeometry x="539.13" y="481.72" width="80.87" height="30" as="geometry" />
        </mxCell>
        <mxCell id="Gtlh_jwDA_kZR49dkIid-12" value="" style="shape=image;verticalLabelPosition=bottom;labelBackgroundColor=default;verticalAlign=top;aspect=fixed;imageAspect=0;image=data:image/png,iVBORw0KGgoAAAANSUhEUgAAAUQAAABiCAIAAACnCj0OAAAXcklEQVR4Ae2diVvTSB/H3/+1aZKWWwRBAXEVORZFURRR3PVed9cbXY/XXREVz1VRxAMQeiZNr6T3kfZ923SHmCaZNE0RsvM8eXimoZ3MfGc++U1+85vJfyw4hw6kAFLABAr8xwR1QFVACiAFLDiHYEYDE6SASRRAMJukIZFpQgogmBHMSAGTKIBgNklDIruEFEAwI5iRAiZRAMFskoZEdgkpgGBGMCMFTKIAgtkkDYnsElIAwYxgRgqYRAEEs0kaEtklpACCGcGMFDCJAghmkzQksktIAQQzghkpYBIFEMwmaUhkl5ACCGYEM1LAJAogmE3SkMguIQUQzAhmpIBJFEAwm6QhkV1CCiCYEcxIAZMogGA2SUMiu4QUqC3MVjJgqwsMDLntDYwFD+uWe09/aGDIZSUDVjKgOxP0Q6SAuRUwHmaMCLW2e3f0ON/MBd7MBfhcns/lFz6FrSSjT0rCHhIy+bLIvZkL/HaZ2dHjbO/wYERIX4boV0gBUypgGMxWkm1scT585Hv2wiewJ/m7e69Ln4L9g15JVsLHZy98bR2uxhaHBWf15Yx+hRQwkwIGwEzWOf98QEdjfCqdk6VOOPlmLqTDOFvJQDqjlm0qzf/9JrT/gJusc5qpYVBdkAKVKqAfZtzmnfyJfvk3l0jyKgyDf8Xi2f5B17UbzPUp6u5/meWVlHC4PWmKTrORtNNVOrO8kro+RV27QR84RN2+S4Ec1BNsJP12LkbY3YTdU6kK6PtIARMooA9m9twFr9ubUKfru/w3nck9ex5rbHGgJ2oT9E5UhYoU0ANzfRP9XUDVflG3J47bqIqEQF9GCmx2BSqGGSOCL//2a+fqe33zp1OUlfRv9uZB5UcKaFegYpjHjsr7lr8XtCrXbW5FLjEUEvMvUqAymG31zMfPrAo/G+pfnxdZ3EZrv7GhbyIFNrUClcG874B7Q+GqXpgsnz8y7t7UzaOx8GSdA83MadTKxF+rAGbcRmuchVJnbD3/O7/AmdgTZiV9N/+gaV86GstEY5l7f/pu3qZQxOvmwhUjgsX5VLfSX4zQGgddAcyXrwbXk0OjrjV6eD2M88Qkc+Giv6Jj7wCN27zg0N5mQme1kr7Xb2UeeaZnAoRdZ7Dd5sLAHKXtH3L5A0mVo2WrVtePVpgHh31sJG0UYOuZz+fFOFlX286N23xcJKOvUi5PTDimZyInTnq6dmo1rbIkC2U4csxt4vGIORgGtegfcqn3nLYOo2G+dbu0ZEL9whvzv3sHaw0zrRtmiWI+JvnoSXhk1K0e+mol/YFgSvJb8HHVESXs6zEeAT0SJXQrsN4wE3Z3mN2UZlno3w5nqqb+IdzmNQpmAOSzF8Fde1wYIb/kk7CreSJXHVGyzqG7e9XihxgRrEW2JshzvWG+c09+IRToeRs/sXWbs3aLqwi723CY+Vw+k83t6ffKOrQIu1vdMkNvXhgR3rrN09bh7On19PR6Xr32v3rt37WnkO7p9XR2udo6nBgRrvRJXqALI8KNLRTIfHefV8h//DjV0+vZ3u3eus2rL/NisenOLldPr2d4fynbkdFCtj29heo0tugsM/S+gBHhlq1sy1ZWS8kxItzW4ewWadvT69nR425td0skXW+Ya9FT15n/+3/RtTNWZJ2zdhLNvQ/KhrK9fRdX0lD9mdlKhh7Pap2YeDxL2+odtnqHRtOKEdyd/1KPZzUF/D55Srd3OrW0C0aEbfUOjdk+nqXrmwplVufTSvofz9JKh63eAQqG23xD+74ZCi18Co+OuZWiGAZ/dL19p+gtfjxLt3U4rWRpqLKuMN+4qalhlDrWBjmfTPH1TbVafVEjywykm5hkyh+hm7Z4KVpmrcvySqS4xlsm8slK+mefBXXML8YT2cezAXVrjxHBBw+ZeCKb5QvbUWg/AsHs4LDLSvpk2bOSga6dbsZfsX8xnsjeuUepOPb7B0ubXsgWNZ3JCTDjNjrMZsu/k0rzgHZQcsLu+vCRS6Yg6wgTSf7Zi5Ke6wkz6/Ymy2uyGc9cvU7VaClVLZ6ZxQpHYpnBYRmHVts26tJV/4ojKnz54+fw4SOepi0+yUBO6GpWkllZraopvyxyuE0eud17vYvLVWW+74BMBQm758nTYDWjnpXV5P4DXtlia4EZt9HLK/IjoOWViATm45Net6cCEWafBgm7a/1gbmim1LccEPe5DZ6m6MSWNq1efnCv1ZLAbRBv9u27/n0H3OXHnXshlzumRbdXr+WjXzAi1Nzq3zfiGRwujMZlB+QWnPu/YXe6qnVhKsHcN+Ct3j86MSldhW4l/e8/aBJHXcBINDNy0F1u+bXAPPssopQ540+KYcZtPh1Dnt8uBdYP5onJTbOsQkl08fnuXqn7QQur0O9YSUbdekxMenCbVzafLW2+M+c0bcCwu0//BNu9+4qPcGJ91NOyMO/p94bC1d4m+FxeArOV9K86DMhWqFE0lhneL53t0wJzPCEzwBbyDIVTAGaM4D4syATwqOvJ5/KhcOrseY/614yZZ8YItYcK9RJszP++fluT/T2tZAAKsyzJ/5xkz//iVd8dic/l79zzizdR0eiRsuAcRgT9AfjwL5PNMf5kMJRiOXmKymHe+YNX6cuVdgAJzE+eGnD3EZchGssU2VvbLk4dZopO3LuvdpONRIUMOQvODgx94x4TXxeahg7NjIG5Y7vBgkIrtg5faGiGODn/AUzGgaT0L4wIQWFW8nyCPJe/ynizxIJQdAKEghB299FjVGeXMBMTwojS0bI13NnlfP6SIexrAwH1SWk+l19cjk7dosSxwTdu0lO3qAcPA1w0E4mWnE8SmDEi9Nc0Iy5hNWkxzB07IEFR4EJcNMNFM5ms2i5x4MsPH9HiO6A6zK/fBtSHzS53TLDMhL228VTGwDw0rHZnAhrJJrJ8LpXOTc/Q0zN0LM5DzY5sJuBkOpN78pSZnqGdrniVWe0dlHG0AKL0JlgNMK/RJXsVwu5S9wPTvgQY1wE+Pd740+c+cAiKSYJGwJeBnpLE2fNe2Ul4jAgKc0LTM7Q/kJLAXN/kBJxLMhR/zPL5dCYXT5Q6g9AlpmfoeCInbkoAM0awXATiDc7y+ekZ+toNL1nnFI7pGTqZgiCdyebEcc7qMGf5vDrMK6slB9gPe+CPolk+53TFpmfo4vo2hyCCenMDDY2BGex6DfLVnjh+0lu0gWyxl7DNrc7rU3qmuAKh1L37vuZWZ9ERXcitubVgebSXRPLNo8dkpnlk6dJ+EjrPXOypawM82ZwJu0slDkSoRTnMktoJHyuF2emK//p7CQy5shVkb2j2nL8odguzDx7CG9QfSN6+Sze3OouzvqXOIHQJoSnbOlxCawKYG5pdqTQE5tNnvcWhh1hS1t5AL33lZAUBJx8+8gHjrA4z+IlSAoj86jV8452JE566RgpUXEi0trscztJMhNJV+FzeAJitpM7Bw5dFrrvXBSQDnQMjQpevVRZJ5mOS2zoFjCWDXvbgIYjbQEmdDx/1b8cP6iJJEHYP1DLLTheJ88GIEBTmy9dK5l3d2IJ+JuSvMRo3zKXDXPrLUvLqde+V6zRh90geDb6tAkv5FIPDBfFpX6Jdvvm+aU3C7u7r97a2lyYapm5B7hE/n6EkBQMyNjRDOtjzlwy4IWqHee5dsG/A293r6u51d3aFu3tdewe8c++CZJ0DIyDuEj6XP3bcW46DUOajE/AnWQNg3juoc4zd1VMIAwT6ihMFnq9C5AYQ0r7EjkJWSjG97Ohhj8aBCshTSIDmFJetmjRuozTArFSRUs+2koEawWzBuT/uwK2HRKVoPEv7Eg9nuNPnZFzxjS2UeJAs+S2fy1N0Ynu3SvN9w7NY/KfP1XqIyx1TWRCGEeF379XwYPxJ4ETUCPMvvxZWqpb3Qyvpx4hQWwfESbyiGiePEaGPn8Ll6onPGADzxImKmz+TzZ046VUPzMCI4MJHSOmFmty67Qf+HnFji9LhpWXFaUCxHJK04Sucq5maAtXRMsz+cX/pgb8iy1ycZ/ZX43Z2eWInf6bEU7VNW5zqMH9Z4pTsJ6hyeQIjQuowT90KlAfDifPZuQviPOvZVZrh0wLzxd9opal74aI7d0FgfjMHmUCp+TyzlhuGhBA+V/BzNG1RNMtA8b4BiNzC/NuuPfBpVbIO0qXKC8nn8scnaR39DJS/PGGIZSbsLnV/EkXLOMBkKygZZgsF3jsYml+QD2aSzaT85MXfaBBKBYX5zPmgDpExIuRj1Lz6o2O+dYOZ8SfbOiBuSyjMff2QBeo1h9lK+kCQYHmjKp158JDWMoLt2QV/3J1fCGnJirB7orGKo3aXVyI6+lk5w+CMFgeY0qMHyOSPO5DnmuLUVClMqlLLLFzFSgauXPOFFaaRlZpVfH78uEeoCBTmomWueOtyqGU+fRbiv4Ra5s6u0sM51DLfvrvmLQPNJElAYYZa5h/3Q3Codphtq9fjLi7CDI+XtJIBqLtyfkHri6lcbvkIB3EXlKQNh9mCw6emig5MxQfF5lZnTDnYSCj/w0cR8LynD2ahI2JE2N7guv8XFU/wyVRls4YOV1QIZatrZNWH2csrkfomPVP66sPsYseQjw8v1o4dHVPzn2l3gGX5nJbg366dkGH2+w/qZomt+TPzwcNqXgQJG+Djg4e0epcVOpOVDEBn+WsNsxazL7kHq36sCuYtbc6U6svxBIVPn/UAeSuCmbDLvlWPJexsXSPV2OIUpqlBO6oksnxegBkj2FgcMoH0dTWqvtAKSIrbaPDNrdvUnsIy2Zzskox/upZf3QH2/CUDXFnqllkjzBgBn/TpG1B8YBw5GISyUK1lPnQEPg9e3uQah9nQmxmfy2uHWccw+/++VmNh1h0BRtjdU7coLVVYcZRMotBrK4J56hbDRTODwy5lhyKLEaH2zlBnlzMWV4xGFlp84oQw1Nc0z7z0NXr2ghcMKAC9IEHY3Tdu0kwgDeaZ7Q0h9Vvb3HsWkA/yERaTvHilZicz2dwPfWuTpkbB/AHm0I0nskP7PGL3IWjEt+/gEd3Vwnz+l4pd2Xwun0zltARLanGAhdm0Ft7IOqcWEsrvOydPSdfoiLtFpWlobPbLv8MXLnolx+JygvHDQ6aFwo+Nu8XTBJXCLGSy/DVx4WIhOERp1YcF56Zuqc0M8bn8uQsln9CefrfKOgSgeSqdo33Ji79Tkur/fplm/EmgAIDZSrLRGMTmM/7khUIEy9px8JD72Qs1koWdW4oRYKVQE0NgtuDc+ATE2cHn8pFo5sJF79h4qcA/nSp0BlB3oJVsolqYL1/VNHskubYWbzZGBK/d0PRAfqCwqZ38Dlj/wMaOH4c4DyQlBB+NhhmyagpcV1/i8lWfxLjpg1m4eirNO92x02e9E5OeY8d9uK3g2xeOsfHAh4+QIKo9/aVBo5Vk3szp6SeyIkxMekBzj4xqalanOwYO2TwlJx8+WvPGW3DOKJi3d2ldZRFPZIUCq7sbJMWuFuavq3rmb/lcvrDNRbOKf4Lbtp32UJomSJaWOUkP/ofhkhvJVs980vuunJOnPOKlCJKcK/0IXc8saZ6KPjKB5PZuqVu4GpglVw8EU4tL3OISt7wCb3QukhFb9bGjXi3GWXJF2Y/AMgvif/wEL4xsPkonA6HKVk1pfGYulpb1auvSSmVTP18VzBgR0g0zn8uPjnnAbKSECowIayRZqN6V61KLBDKsa2Q+ftZvFv6ajhgKs/G7c/K5fJbPf/yUaO/0AJ8NqL6BMKv3JMl//34TFsNswbkjx7TaJUlWko8SmHEbvepQm3CW/Fz9YyrNnzojfbAyyjJbcI6s80D9WLIljCeyU39ARulVwWzB2Wpg5nP5o8eoukYfcL0Wl9SGm7Z4aV/FzXNtim7ZKtlRgLU3MFCHvqx24KSxMNdiD7B4InvzD8UtrL4LzKk0Pzoms+bs8lW4Fwcor5SQwGzBOcLukt18SykHpfPpTO7UGU/5KM9AmC04d+UahEnZ4t24Ga5t0Ahuo6qEmc/lv65GTp3xCAu+yDrHoye0vjhqwXkA1o5VmRUQ1FiYoUEj4LoaE/5AUn1zyYpgJuuMMZ77RtxKY66Rg9VeohxmC17YcuzLEuQZHirp5E/yj1TGwmzBuYVPWt2ZQpkXlziyzrEJYBaKG4tnoVMd0MYAXzAwq0dPIirx+mA0qzFhoGV+9dovbFitfumKYLbgXENz+NdLvlUNC+6A2uLEu/fB4f2S8ZEkAIZt2xZ8Pw/xJ4vzFKdPnqIbmuVfvmurDx88rMfo8bn8lyWuuFGpeKXkWrENhxkjwtrXBX7+wgprhDcNzOIG21DpL4sxA5+ZLTinvmpKtu6ULzG/EJpfCL16Hdrd59rdV9huFhr1KUBO2N0qCydkY7MtONfcGuwf8swvVIDc/EKhbHWNDvFDk9KNBiMCu/tcL/8OqQeZAzXmF0InTjLFeH7ItAVZ5x8d82kseSrNC8Uun9oVl9xwmIuPk4GBHwNOl9o+hPMLoX0H3PVNjFAYdZjnF0JVPTMbMswGDbYxE/MLBsNsJRnCXtgyzkoyuI0WEpI0OClOiLuX9rSV9O/aExgeCUqOkYPe4ZHg9m6q3GcmztxKMgM/BkdG3RcuBpeWufLjwsXCf3ftgSxREucpTuM2Wsj8zr1weeYnf2b2H/QODXvUl0yIMxTSQq2Vij09U3hH18hBr8ZsMaKwst1KFlZuiA/QjhrzkSsns++A/7dLIXHdZ5+xP5/x9w8Jkq4NFkAnKc7/08VwPUexO7mKm6houo0KZZB5C+S/AWZjn5nLm3OznCkuyi0sbxIf4uiU6isizhm30Upvz6r0QhgRkuRcaQ7r8H3c9s00fq2vKAOzlWSqd4BtTIMMSoVgrnXHQvmvvwIyMOM2H4J5/VsCXREpUKUCMjBbcM70MP/5YM2rWaWC6OdIgQ2igGEwR2KZJ0+ZR08KC3TAaLamiWSK39Htvv8XZGGAbBmMDefcIG2JivEvV0Ae5onJimf2btykhM0K2ztD/UNe9WWlsoBpP/nufXDnroKvDyMKr97S8roGSebGLrT4l/chVP0NooA8zBgROjRGVRRjUFyLEz911iMEY1hJf3un8+Bh7+dFVnfsl5jA5a+Rz4vsoSPU9m6nsMdafRN96qz8a03FP5Sk3d54xw49u0ZukAZDxUAKKCkgD7Pw7eZW+s5dttII8pXV6MmfC7suC5MQRe+878h44NKV4Ou3EYcrqnEZZzCUcrii7z9Exo97im8PX1u/1t7pPz5JqU/NSxgWPp7/hWrrkK5AUpIGnUcKbC4F1GAu1oT96bTf6a54gYSPSZSvUylG2xbWZ7dspc6c95+74C0/zpz3nznvF687FwuKEcGr1/U8JLvc8bpGh2TFjzhnlEYKbHYFoDAXvL64jbo2RUPfBy82hokkP3YUsk2pPu2OjFe2pRHjT586K7NoRt/V0a+QAhtWAU0wC6W3kr5385A9GQHPl66EDFzJIJbPSjLz2t6Fm0rzf06v7RQnzgSlkQLmU6ACmIuVZ5u2OJ+9gAx0vyxyGkPz9Qk6vB++4O7ZC5/Kihl910W/QgpsZAUqhbkw6saI0I4e5+NZxTeejB/3GrvLfJmC7JzCK4XezAX2DlLFl1SFyn6FAkWQAmZWQA/MAiQYEejqCQ4MuSTb97x9p+e9JJWC19DMLIqWrVO+xMfP4YEhl5WEvNqn0guh7yMFNosC+mEGNbSSvkNjzJlz1MpqdGU12rJV9iWsBt8RMSJ84qRXuOLYUff27m9eawbKhhJIgX+PAgbADMTCbRRuozQurwe/qiLBClesIgeDbzGoJEiB76iAkTB/x2qgSyMFkAIIZmSckQImUQDBbJKGRHYJKYBgRjAjBUyiAILZJA2J7BJSAMGMYEYKmEQBBLNJGhLZJaQAghnBjBQwiQIIZpM0JLJLSAEEM4IZKWASBRDMJmlIZJeQAghmBDNSwCQKIJhN0pDILiEFEMwIZqSASRRAMJukIZFdQgogmBHMSAGTKIBgNklDIruEFPgf6Gm5x5kmn5QAAAAASUVORK5CYII=;" vertex="1" parent="1">
          <mxGeometry x="644.63" y="486.72" width="66.12" height="20" as="geometry" />
        </mxCell>
        <mxCell id="Gtlh_jwDA_kZR49dkIid-13" value="" style="shape=image;verticalLabelPosition=bottom;labelBackgroundColor=default;verticalAlign=top;aspect=fixed;imageAspect=0;image=data:image/png,iVBORw0KGgoAAAANSUhEUgAAASIAAAEgCAIAAACfFOnqAAAgAElEQVR4Ae2dd0ATyfvwmRR6lSaoCIoVxd7wRAQ9Tw87eicqYEO9Q7GfXVCxIJ5iOeXEXrFgPUXAisDZOQFB6b33EEjbvP6c9/LNJSEsSTaQZPYPmJ3szsw+83zmmT5qXHQhCSAJECwBNYLDR8EjCSAJcBFmSAmQBAiXAMKMcBGjCJAEEGZIB5AECJcAwoxwEaMIkAQQZkgHkAQIlwDCjHARowiQBBBmSAeQBAiXAMKMcBGjCJAEEGZIB5AECJcAwoxwEaMIkAQQZkgHkAQIlwDCjHARowiQBBBmSAeQBAiXAMKMcBGjCJAEEGZIB5AECJcAwoxwEaMIkAQQZkgHkAQIlwDCjHARowiQBBBmSAeQBAiXAMKMcBGjCJAEEGZIB5AECJcAwoxwEaMIkAQQZkgHkAQIlwDCjHARowiQBBBmSAeQBAiXAMKMcBGjCJAEEGYKoAMsFqu+vr6qqqqkpCQ/Pz8rKys9Pf3z588pKSmf/r1SUlJSU1PT0tIyMjJyc3MLCwvLy8tra2sbGxs5HI4CfKRSJxFh1hazl8lklpWVpaenv3nz5vHjx+Hh4WfOnDl8+HBAQMDGjRtXrly5dOnSBQsWeHh4zJkzx/3bNW/ePE9PT29vbx8fn3Xr1m3bti0oKOjEiRNXrlx58ODBy5cvExMT8/PzaTQahmFt8ZuVOk0Is9bPXjab3djYWFtbm5eX9+7du4cPH545c2bHjh2LFi0aP3583759O3bsaGZmZmxsbGBgoKurq62trampqa6uTqVSKXwXlUrV1NTU0tLS0dHR09MzMjIyNTW1sLCwtbUdMWLEzJkz16xZExwcfOPGjZiYmNTU1PLycjqdzmQyEXhEKwHCjGgJNxk+k8msqKhIT0+Pj48PDw8/duzYmjVrfvzxx27dumlpaZHJZCB0qbXkEnobkL5dJiYmw4cP9/LyCggIOH/+fFRUVGJiYkFBQX19fZNpRT9IJwGEmXTyk+jt2tra5OTk+/fvHzp06Ndff504caKdnZ2hoaEAWi1hCtezAuCpq6t36tRp5MiR7u7uW7duPX/+fFxcXH5+PpPJlOiz0EtNSgBh1qRoZPsDh8NpbGzMzc2Njo4+cODA7Nmz+/bta25urqWlRSKRIAC4WJHpQzBeCoViYGBgbW3t5OS0Zs2ay5cvJyQkVFdXs1gsVJ+UiRogzGQiRnGBMBiMoqKiN2/eXL58efXq1QMGDNDU1OQZFplSI1VgPOQsLS2nT59+6NChyMjItLS0mpoa1FcpLoNx/IYwwyEkSR9hMBjp6el379719/efOnVq586dqVRqaxkunAjC5JFIJAMDg+HDhy9btuzkyZOvXr2qqqqSVAzoPXRaJzE6gGFYTk7O1atXlyxZMnDgQGNjYwqFAgDAqett4THIm5aWVpcuXVxdXfft2xcbG1tXV4eqkRKoDLJmEghN3Cv19fUZGRkPHjxYvXq1ra0tNF9tARuJ0wB509XVHTt27PHjx9++fVteXs5ms8VJAf32XwkgzP4rDynuWCxWenr6tWvXVqxYYW9vz2uASazfbepFAACFQrGwsJg6deqBAwfi4uKqq6ulkJZqvYowk0F+YxhWWVn54MEDHx+f/v376+npkUikNgWJrBIDYevQocOkSZOOHDmSkpKCzBoeBUKY4ZFSk89gGFZXV/fPP/8cPHhw+PDhOjo6itUAkww/CJulpeXChQv/+uuvwsJCFovVpIzQD1zUBSKFErDZ7MzMzIsXL86ZM8fCwgIOLkumuIr4FgBAS0tr8ODBO3bsiI2NRXVIMaqErJkY4Yj7qbGx8cWLF2vXru3Xrx9shikiKtKnmUKhtG/ffsqUKaGhoTk5OagfUqTSIMxEikWcJ5vNLigouHr16sSJE42MjJS1GYafQACAhoZGr169Nm3a9O7dOzqdjmATUCCEmYBAmrltbGz88OHDrl277O3t1dXVVaElhoc3AP5vXrKZmZm7u3t4eHhRURGaOMKvSQgzfmk0466urr5//76Xl5eVlRWFQsGjfyr1DABAR0fHwcEhKCgoLS2tGWmq0s8IM1y5jWFYaWnpuXPnnJyclLi/XvpCAQBApVK7du26evXqd+/eNTY24pKvsj+EMGs+h+G486FDhwYPHqzKvR34IQQAmJiYzJ07NyoqqqampnkRK/sTCLNmcpjJZL579+63337r1q2bEsycwo+KlE8CAIyMjH788cewsDA07RhhJg4zNpv96tUrb29vS0tLMpkspeap2uuwqTZixIgTJ04UFxercvcjwqxJzOrr62NiYry8vExNTVGPosRlBIlEsrOzO3LkSF5ensqShjATjRmNRouIiJg5c6aRkRFiTGLG4Ivq6ur9+vULCgrKyckRLW5l90WYichhNpsdFRU1bdo0Q0NDxJiUjPFI69mz544dO1STNISZIGZ0Ov358+ezZs0yMDBAjMmEMRgIAMDW1nbfvn0qWHtEmP0Hs/r6+ujoaFRXlCFd/EFRqVR7e/uDBw8WFhb+R+7KfoMw+18Os1isly9fzp49G7XH+NmQrVtdXd3e3v7rznllZWX/E72yuxBm/z+H2Wx2UlLSsmXLUL+ibLkSDo1MJg8YMOD06dOVlZUq0veIMPs/zDgcTmpq6m+//dapUyfUHhMGQ+Y+mpqaY8aMuXXrlopsdYww+z/McnNzd+7c2aVLF7SqReZEiQwQAGBgYDB16tSnT5+qgkFDmHFrampOnz49YMAANOleJBIEeQIADA0NFyxYkJiYqPQbiqg6ZkwmMyIiYvz48dra2gTpkxIHK2UFGwDQoUOHTZs2ZWVlKbdNU2nMMAx7/fq1u7u7lMPQAAAymUylUnm74cO9DaXUwrbGJ++j4CJOeM6TlNOpKRRK3759Q0JClHsrEdXFDG4MvH79enNzc2l4IJPJrq6u27Zt27t3r7+//8qVK2fOnDl48GBzc3MdHR242bA04bcF2OAqMj09PSsrK0dHRw8Pj/Xr1+/evfvAgQMbNmxwcHCQpr6tqak5fvz46OhoJa46qi5mNTU1p06d6t+/vzRT72G15+bNmzQaDZ4GWFpampiY+Ndffx09etTX13fChAk9evRQ0JWg0GoZGBjY29tPnz5948aNp06devLkyZcvX6qqquB5MaWlpQcOHJBmxgxspC1atCg5OVlZtzZQXcxevnw5ZcoUHR0dacwFAGDKlCnJycnC46sNDQ05OTkvX748deqUr6/vsGHD4C6OCmHZYDXYxMRk7NixmzZtunz58ps3b4qLi4WPPmOxWE+ePLG3t5fmuwAAX/d92LVrV1FRkbAklcBHRTErKChYv369iYmJNMqhpqb29VjNnTt3lpSUNKUKGIbRaLTs7OyIiAg/P7/Bgwfr6urCJpw0eBP3LgRMX1/f0dFx//79MTExRUVF4jerysrKWrp0qZSSpFAoDg4O4eHhDQ0NTQlTcf1VEbPa2to///yzV69eUmqGmpqatbX15cuXaTQaHg2oqKi4d+/eqlWrhg4damhoKNkYHX8/hDBs4n8Vfp7fh2fBnJyctmzZ8vjxY5z7C9TX1585c0b6rlpDQ8PFixd/+vQJjzAV6xmVw4zFYsXExLi6uqqrq/MrmQRuAICDg8PTp0+Fq1JNKQGLxcrJybl9+/aqVavs7OzEbEHHDwzPTSaT9fT0zMzMrKysbG1te/bsaWdn1/fb1bt37x49enTt2rVTp06mpqa6uroCR+zyAhH+UviTlpbWkCFDtmzZ8ujRoxYtdsYw7OnTp927d5ey2CKRSN26dfvjjz/q6uqaEqCC+qscZsXFxX5+fpaWllLqhJqaGplMdnNzS0pKaumYD4PByMzMvHnz5uzZs+FYAi8xPBhIJBKZTDYzMxswYMCUKVO8vb03b94cFBQUEhJy9uzZK1euXL9+PTw8/M6dO/e+XXfu3AkPD7927drly5fPnDlz/PjxwMDADRs2LFy4cMKECfb29u3ataNQKLC+yl9rhUbMwsJi6dKlDx8+LCgowF9q8JQ+MTFx0qRJvK8QJhmnj7q6+pgxY6KionghK4dDtTDjcDgRERGjR4+WpgOapzGamprLly/Pzs6WTBXYbPY///zj7+8Pe0e0tLTMzMxsbW0dHBzc3NxWrly5Z8+es2fPPnjw4O3bt5mZmZWVlUwmE/vvxR81/y/wqOuysrL09PRXr17du3fv1KlTu3fvXrFixfTp04cNG2Zra2tiYqKpqWloaPjdd9/t378/LS2tpeUFL/acnBxfX1/pMQMA6OnpLV++PDc3V+LE8FLVdhyqhVlubu7q1avbtWvHQ0Uah66u7q5du8T0f+DJ5rKyslu3bv3y7QoICDh//nx0dPQ///zztZNGfMcDnsD5n+FwOPX19fn5+R8+fHj06NHZs2d37NixdOnS9evXP3r0qKKigv/hlrrLy8v37t0rfT1cTU2NRCINGjTo6tWryjSrWIUwY7FY586d+7pUXrK+B2EgjYyMjh8/jrOfQIzi0un0tLS09PT0kpIS2aLVVKQQueLi4rS0tNzcXOmPTaqpqTl+/LihoaGwlFrqA2cV//LLL9JY16Y+vLX8VQUzDMOSk5Pd3d2lnBzEUxq44+eFCxeUqdCVWAvr6urOnTtnaWnJk480DhKJ1L9//7CwMAlaiRJ/AqEvqgpmtbW1ISEhPXv2lL79ABUIAGBqanrjxg0Gg0FoDilE4DQa7cqVK9bW1tLQxf+ujo6Ot7e30mzErxKYQVPm5eUl5ZwPfj0AAJiZmd26dUtpSlxpeK6vr7927VrXrl35RSSNGwDQtWvX0NBQ5diFXyUwYzKZYWFh/fr1k5UpU1NTg9YsPDwcYcblcuvr68PCwmSImZqaGpVKnTt3bkpKihJ0OaoEZrm5uStXrtTT05OmfBV4F2IWFhamHMWtNKaMy+XSaLRLly5ZWVkJSEmaWwBA3759L1y4QKfTpUxeq7+u/JhhGBYeHt6/f38ZmjKoPe3atTt9+rTyTVmQQClra2tPnz5tbm4uDVfC7xoaGvr6+mZmZkqQpDb1ivJjVlRUtHr1auln3AkrgYGBwcGDB6UccWpT2iBxYqqrqw8fPizDpi+UNplMdnJyioyMVPSlaEqOGZvNjoyMHDVqlMxNmZqamra29saNGwsKCiTWTqV58espuFu3bpVm5Z5wKQYbwBYWFkFBQdIPTrauqJUcs8rKysDAwA4dOhCBGZVK9fDw+Pz5sxK00aXUws+fP8+ZM4cgIf/000///POPlCls3deVHLOkpCQPDw8tLS2RhaWUniQSycXFJS4uTvpZFK2rBNLHHhcXN3DgQCIwAwBYW1ufPXtWoRdWKzNmTCbzzp07w4YNk9XsKgEsAQDdunW7du2aik8EaWhouHTpkjT7FAgIlv8WbkPi4+OTn58vfXHQWiEoM2Y1NTWBgYFmZmZElLKw5aCnpxcUFFReXt5a+dcW4oVL0Qkqy6Ccv/vuu6ioKMWtnCszZqmpqR4eHlQqlb90lKEbniR0+fJlFe/Tr62tPXnypKmpqQxlyx8UAKBjx46HDx9WXDkrLWYYht2+fZuI4TKoAXDq8MaNGzMzMxW62SC9PcQwLCMjY9WqVcbGxvx4yMoNF6H5+PhkZGRIn9pWCUFpMaPRaLt379bX1yeixggA0NDQmD9//ocPH9BkKy6Xy2Aw4uPj3dzcNDQ0ZEUXfzgUCmXChAkxMTEKOoCmtJilpKTMmTMH7ofBn2EycQMAXFxcHj9+rJTbMElQ3mMYVldXd+3atT59+hBUrtnZ2V28eFFBBa6cmGEY9nWDjEGDBhGU5Z07dz5x4kRlZaUEGqmsr2AYVlxcHBAQIJPFnQKlIQCgXbt2AQEBCipz5cSsvr7+8OHDFhYWRGCmpaXl4eHx8eNHBa3AEMc5h8NJSEiYOXMmEd1OFApl4cKF6enpxKWfuJCVE7O8vLw1a9YQ0TCDo6Xnz59X3F4v4pSJy+XW1taeO3euW7duMi/gAACOjo5PnjwhNP0EBa6cmCUkJPz0009ENMfJZLKnp6dyLIIiQqU4HM7Hjx/nzp0rc+HDbv2zZ88q4uiZEmIGpws7OjrKfMAUANCpU6fLly8rwQooIhiDYVZWVv7xxx8y2QmTv4UGe3f9/f0VsR6hhJjR6fSLFy/a2dkRUW/x8PBITU1VxAKVOK4EQmaz2XFxcWPHjpWt/OFGsfPnz1fE5pkSYlZdXf37779bWFjwl4UycRsbG4eEhNTW1gooFroVkEBJSQlB62LGjBnz4sULgeja/q0SYlZSUrJhwwaZr+MEAIwYMeLJkydoPn6zas1isW7dutWpUyeZG7Tu3buHhYUpXG1CCTFLT09fuHChzJcYUqlUT0/PT58+KVweN0sFEQ98/Phx2rRpMsfMzMzs6NGjCjdIrYSYvXnzxtXVVbYZrKam9nXU1c/Pr7CwkAilVL4wKyoqAgICZHJWAa/CDzck9vf3V7glEUqI2aNHj4YOHSpbzGAf4+nTp1HDDGeJ0NjYeOHCBTMzMx4k0jsAADo6OitWrJD4eBCciZf5Y0qI2dWrV7t27SpzzPr06fPgwQPUMMOpgiwW68GDB1IelitMpoaGxrx585KSknAmo408poSY/fnnn0ZGRrLFjEQiOTk5xcfHo4YZTsVls9mxsbEy79anUChTpkx58+YNzmS0kceUDTMmk7l//36ZnADEX5QCANzc3BITE9tItrX9ZGAY9s8//8ycOVPm5Z2zs/Pz588Vq7xTNsxqamq2bt1KxPwPb29vxV1W2CpYfvnyReZdvnBY5eHDh4pVe1c2zAoLC2VybCS/KYPbUaxdu1ahd32RP2lZWVnLly+X7eRGAMCAAQNu3rypWHuqKxtmGRkZCxculG1FBWK2efPm4uJi+Sur4saYk5OzZs0amc8TsLOzu3TpkmJNK1U2zD59+jR79mwiMPPz8ysrK1NcpZd/ynNzc9euXStzzLp373727FkajSb/L5I4RmXD7N27d1OmTCECs23btpWWlkosaBV8MTc3d926dTLfWN/GxkbhZpYqG2Z///33hAkTiMAMVRpbWlLASqPMt3y2srI6duyYYu2qr2yYETFWA9tmv/32G5pp1SLSsrOzfX19ZdsFoqam1qFDh+Dg4Orq6hYlpnUfVjbMnj9/PmbMGCKs2cqVK3Nzc1s3txQr9szMzGXLlsl8XxBLS8uDBw9WVVUpkDQQZgJd96JvAQCLFi1SxAWFraiLX758WbBggczHMC0tLX///XeEWSvmLDc2NnbcuHFEWLOff/45OTm5Nb9NoeLGMCwxMfHnn3+WeV507NgRVRpbWRcI6gIhkUgTJkx4//59K3+e4kTP4XAIWpHUqVOno0ePoi6Q1tSFDx8+yHw1IewCcXBwiI2Nbc1vU6i42Wz2ixcvRo8eLXNr1qVLl5CQEMXaeEfZ2mafPn1yd3eXedYCAOzs7BRuKl0rgslbCCO6sSuFb/fu3c+cOYOGp1sxc7nETbaysbG5dOmSip8YiD9rGQzG1atXiTiOGE22wp8LRD1ZUFCwYsUKmfduqampmZubHzx4sKKigqikK1e49fX1f/zxh6amphR2S8SraOpwm1CT6urqzZs3y7zSqKampqent3HjRjRJH2c2FxYWbtiwQeblHQBg+PDhCreMXdnaZkwmMzAwUObLOtXU1CgUioeHB9rZCidmCQkJkyZNknl5BwBAyzpxZgGBj2EYFhISIvNNCmBn45gxY16+fIkOgsGTfw8fPuzcubPMMYObFLx+/RpPGtrOM8pmzbhc7tWrV7t06SLzDIZnwVy/fl2xFhS2iqrRaLSjR49SqVSZ5wLacqdVMlREpBERETLfQA42xjU0NPbu3atwmwSKkBHBXunp6YsWLSKRSDLHTFtbG20gR3Du4Qv+1atXP/74o8wzWE1NjUQiTZ48OSEhAV9CVPQpDofz9OlTgo5KNTAw8PPzU7iSTgkrjWlpaV5eXkRgBgAwNja+ceOGYu33Imfcq6qqjh071r59e5lnAQDAxMTkyJEjaHNvOeepiOiKi4uJOKoC9oKQyWRfX1+0IkaE3L95YRj2+fNnb29vmY+YQfl369YNHVXRlPDl6l9VVRUUFETEwUswp/v16/fo0SMmkynXr1KQyBgMxsOHDwcOHChzUwaF7+Tk9Pz5cwURxv+SqYSVRjqdfuHChd69exOU00ZGRrt27UK7XP1PifhcpaWlAQEBMt+YAHZBAQC8vLzS0tL4IlQMpxJiBg/FHTVqFBGYqampkcnk77//PjY2FrXQBHSczWbDzg+ZT/6ApuzrCIG/v79iTRqGIlJCzLhc7ocPH2bNmkXEXBBYrBoZGQUFBaH95AQw423+QUQBBwDo0KEDOuJdQOateZubm7t69Wo9PT0Rk09l4UUikezs7F68eKFYO7kTmiV0Ov3q1atWVlZEMAatmaOj45MnTwj9CoICV05rVl9ff+jQIXNzc+KynHd4J4fDIShvFChYNpv9/v17Nzc3dXV1gmROJpMXLlyooNuxKCdmGIbduXNnwIABBGU5LFxNTEx2796N+kK4XG5hYeHOnTtNTEyIE3i7du127dpVWVmpQKUPL6nKiRmXy01JSSFiGTV/lZNEIvXp0+fWrVsqvtaTTqeHhYVZWFgQ0fMBBQ5Xr1+6dEnhBqYhaUqLGZ1O37Vrl5aWFnHlKwCAQqGMGTPm2bNnDAaDV3SplINGo12/fr13797EMQanuY0fP/7FixcKWkVXWswwDAsPD+/bty9xmPF6mceOHfv48WMFLWilKRTq6+v/+uuvUaNGETEZn7/ioKur+8svvyhow4zL5SotZlwu9/Pnz3PnziUUM0iahoaGi4vLs2fPVGqNDIvFiomJGTJkiIaGBqFCBgC0b9/+0KFDijhipuSVRi6XW1NTs3fvXhMTE/5ykQg3AIBKpY4ePTo6Olqxzt2SzJRhGFZVVXX58uUePXpQKBRCGYMF2ciRIyMjIxV3+ESZrRmTybx169aQIUOI1gNe7bFPnz7BwcEFBQUK2oTAQx2GYQUFBbt37+7RoweZTCai2BIIk0wm//rrrwUFBXiS1zafUWbM4Cnj7u7uRMwWF1AFSBqZTDYzM1u4cGFqaqpS7mXAYDDi4uKmTp1qbGxMaJ8HT7wAACsrq1OnTim0PJUZMy6XW1lZuXfvXiLWPvH0QMABAFBXV+/Ro8fJkycLCwuVZt4ji8XKyck5dOhQ165die7w4BcpiUSaNWtWYmJi2zRTOFOl5JhxOJyHDx+OGDECf70RfLtI/17wFv/rPLNmaGg4derU8+fP5+bmKjRsTCYzPT09JCRk/Pjxurq6RGw9wM+VgNvMzGz//v2KtZW3MHtKjhmXyy0pKVm+fDnOVgS0Rf3791+0aJGfn9/u3bvXrVvn6upqYWFBJpMhcgJ60NQtHFUzNzcfPXp0cHBwXl6ewjXYWCxWWlpaQECAg4NDu3btoASa+l4i/AEAjo6OkZGRCl1jVPIOfVioYBh27dq1Pn364LFIGhoay5cvT0tLYzKZLBaL+e1iMBhFRUXBwcH9+/fX1NTEEw5P5wAAZDJZXV29Q4cOq1atevPmTU1NDZPJbLOdZhwOh8FgVFVVvXz5csGCBcbGxurq6vIHDApQX1/fx8cnMzNT2D4olo/yWzMul5ufn798+XI8HSG6urobN24U7tTCMIzJZKakpGzZssXW1pZCofBAwuOAZpBCoRgaGjo6Om7evPn69evv378vKytrI+U0g8EoLCyMj4+/ePHiqlWrhgwZoqOjAzvrW1Ss4JEG/md69ux57tw5JRiNVAnMmEzmlStX+vTp02wGAwD69u178+ZNkZOnMAyrq6u7ffv26NGjW2rWYNQAABKJRKFQjIyMevfu7eLi4u3tffjw4ejo6JycnMbGRrlZOQzDGhsb09LS7t+/HxgY6OXlNXr06G7duhkYGFAoFDk3wETmCwDA3d398+fPimW4RKZWJTCDM4k9PT3xLJ6H256eO3euqYFmeHKXs7OzlIs+IHJkMplCoVCpVA0NDUtLS2dnZ19f3wsXLpSXl8scOQ6Hk5+fHxwcvHTp0pEjR35dYaD+7aJQKGQyuS2gxeMNAGBpaRkSEiJzIYjEgGhPVcGsvr7+xIkTXbt25WVkUw6o/Z06dVq/fn1iYmJTZi06OtrR0VFWC7R5/Zlw5O3w4cMEnUZZU1Pz22+/6evrQ6ha1KnTlMSI8FdXV1+yZElOTg7RAMgnfFXBjMvlJiUlubm54WxpAAC0tbVHjBhx8eJFkaeJczicBw8eDBs2jEqlykrPIOHbtm2rqKggqBTHMCw/P9/T01OeY18SyKdPnz5hYWFtpOEqPYoqhBmHwwkNDbW2tsZPGolEsrW1PXXqlEjbwmAwoIXEGWCz2gYAGDduXFFREUGMQXVhs9mvX7/u1q2brJLd7He19AFdXV1vb29F3MGqKSBVCDMMw0pLS1etWoWnhQY1A9apBg0adO/ePZH9XXl5eQsXLvy643RLNUn4eQDA10G2p0+fymEHSBqNFhgY2Frd9MLfzu8DALC3t79y5YrI6npTetzG/VUIMy6XCyeFfPfddzhHq3lTOlxcXEQeuYRh2NOnTwcOHCj9BD8ymezl5VVYWEioKYPqiGFYenq6vb19GzRompqay5YtU7LjGlULMy6XW1RUtGXLlhbtxgPnc3h5eaWmpgqXmiwW6/Dhw9bW1tKQBneHP3PmTFPdm8LxSulTV1d3+PBhadLMb4Jk5QYAODk5PX78WOFmzIjPDpXDDMOwFy9ejBs3rkUGDa4sDA4OFnkWSUNDw9q1a01NTSU2DrCm9OHDB7k1+tlsdkJCAhEn/UmMHNyJ8Y8//lAyxlRispVwMVNfXw/tT4uoIJPJzs7OMTExwvOA4fkM8+fPl/iUUDgPvbS0VDi1BPlgGJadnT158uQWCUFihJp9EQCgp6e3YMECkQ10MLQAACAASURBVFUGgoQgt2BVzppByZaXl69evVpXVxe/kgEAvvad+Pn5idwxDrZ2Zs6cCYekmtUqgQdIJJL856FXVFRs2LABv1UXSLNsb8lk8uDBg69fv65MPR88jFUUMy6X+/fff0+cOLFFo14AABsbm3v37gkbNChQGo22YcMGKyurFk0QIZFIVCr1wYMHctYwGo127NgxfX192QIjQWgAACMjo82bNyvoNow8nJpyqC5mdXV1J0+etLOzw98NAIePvby8vnz5IlKgGIbV1NRcvXp12rRp5ubm6urqYgKHPStaWlo2NjZubm5ZWVly6GPkT3ZDQ8O1a9cIOqEKP2xwJoCHh0dKSgp/8pTJrbqYwfkQvr6+hoaGLao62tjYhIWFiekSZLFYeXl54eHh8+bNs7Ky0tXV1dTUhLMH1dXVvx5grampqaOjY2FhMW7cuP379798+bK0tFT+7X4GgxEVFYVnAhp+ZiR4kkKhODs7P3nyRM6ljDwxVl3MuFwu3CxkxowZ+Ot4sOhdtWpVdnY2nnyqrKyMjIwMCAhYtGjRjBkzZs2atWTJksDAwEePHrX6KhgWixUbG9urVy/8pYwEFIl/hUQi9ejR4/jx44q+Plq8Mqg0ZlA0jx49cnJywr/ZIBzbef78OZ7pGti3CyIN3bDMbgslN4vFevPmTSsOUgMATE1NV69erTRThJuCDWHGpdFooaGhffr0wdnnBtvrBw4cEDmG1pSg26A/PMaltTCD9YI5c+YkJye3hUKH0AxCmP2feCsqKjZt2mRmZiamx4K/8gNHk588eSK30WQilIDNZn/48KFfv37yrzTCPVd+/PHH169fKz1jKjo8LayyGIZlZmb6+PjgPDoIdjnOmjXr3bt3eKqOwjG2BR82m/3u3btWsWYaGhojR468ceOGyAnZbUE4sk0Dsmb/k2dKSsrixYvbtWuHp3QHAOjq6i5btiwpKampYbT/Bd0mXbBtRvRpHvy1AOgmk8l2dnYnTpwQubyoTYpK2kQhzP4nQQ6H8+rVq+nTp+vo6OAnbcWKFZ8+fWIwGApX+WkVzMhkcufOnQMDA1XqAB2E2f8w43K5bDY7IiJi3Lhx2traOEmjUCiurq53794tKipSLNjkjxmFQrGxsdmzZ091dbXClUr/UZQW3iDMBAXGYrGio6MnTpyIc8YjbKd17dp16dKlERERRUVFdDq9pWPNraJzcsaMRCJZWVlt3bo1Nze3Vb5XMKfleI8wEyFsSNoPP/yA06bB1Z/q6urm5uY//vjjiRMnkpOTS0tLq6urv85ybGxshJursr5dTCaTwWDQ6fS6urrq6uqysrLCwsKvq+Dk32kpN8zgtLL27duvXbu2uLhY1RhDPY0iGINeLBbrr7/+GjduHE6bBkmDlo1EIhkZGY0cOXLZsmW///57WFhYRETEs2fPXrx48ezZs6ioqFu3bp0+ffrr8fBLly4dO3astbX18uXL5T9rVj6YwcPfbGxsdu7cKXLzoibzQIl+QNasycxksVhPnz51c3Nr164dzvE02JPG2w2ORx2VStXW1tbX19fR0dHQ0ICbIvK2cCORSL/88ouyYkalUnv06BEQECC8l3OTole6HxBm4rKUw+F8+PDBy8vLxMSkRaQJ92KL8QEALFu2TPkwg2PQ8GhF4rbEE5d/beY3hFnzWZGSkrJw4cL27dsTtLehUmLG2+jyypUrzYtY2Z9AmOHK4by8vICAgD59+ki2db4YUwYbdUpmzUgkkqGhoaur67179+rr63GJWKkfQpjhyl4MwyoqKk6fPj1ixAj83Y/i6eL9CgBYvHhxRUUFrqTI7iEiukBgp6KFhcXixYsTEhLkvB5cdrKRcUgIsxYIlMPhREdHT5gwwcjIqKVnL/GgEnYAADw8POQ/35/FYsXHx+M8+U042cI+AABNTc3u3btv3769pKREBTvum1ImhFlTkhHtj2HYp0+ffvvtt169esmqAgkAmD17dllZmegoCfPlYSYMjAQ+ZDK5Xbt2Li4up0+fln+RQZiQZBMwwqzFcsQwrKSk5Pz5887OzgYGBjhXqYlR3FbELC4uzs7OTkzacP5EpVLh6N+bN29QRVFYpRBmwjLB5cPhcL58+bJ06dLOnTtLadZaCzMmk/ny5ctevXrhZEnkY2QyWV9ff+DAgb///ntlZSWqKIrUHoSZSLHg8oRmLSQk5Pvvv5emux8A8PPPP8tzL1T4eUwmMyYmpmfPniL5adYTblzZs2fPJUuWxMTEtHQaJy4RK8tDCDNpc5LJZCYkJOzYsWPo0KG6uroSjGIDANzc3BQIMzh/ytzc3NXV9dKlS/I5XkPafGrV9xFmshF/Q0PDixcvfv75586dO+vo6LQINgDA9OnTS0pKZJMU3KFIYM0gYIaGhoMGDdq3b19RUZGCLmnFLSTZPIgwk40c4d5V9fX1YWFhs2bNsrW11dPTwwkbAGDKlCltHzMKhWJqajp48ODly5fHxcUp7u4MMsty3AEhzHCLCt+DbDY7Kyvr0qVLHh4ePXv2xGPZAACTJk1qFcxgF4j4BaxwxNnY2Hjo0KEbNmx48uRJbW0tPmGgp/6/BBBmhKgCm80uKSm5e/fu7Nmzu3fvbmBgIGY+JIlEWrBgQWvNAhGzsxWJRNLU1DQxMRk6dOiWLVvev39fW1uL+hIl0BiEmQRCa8ErDAbj4cOHXxdWDx8+vGPHjnp6egLjbHBx2vnz58XsFt6C+FryKIZheXl5bm5uAjNaYAPMyMjI1tZ27NixW7du/fjxI4vFQoC1RLr/eRZh9h9xEHGDYVhtbW1cXFxwcPDcuXP79+9vbm6uqalJoVA0NDQsLCw8PT1ba91+Q0PDnTt3Bg4caGBgQKFQyGSyjo5Op06dHBwcfHx8Lly48PnzZ9RTL71WIMyklyHeEJhMZlFRUWxs7L59+2bMmOHs7Dxp0qR9+/Z9/vy5Ffvr6HT68+fPf/31V2dn59GjR3t4eISGhiYlJVVUVMh/3wS8olS05xBm8s4xWPXCMIzD4bSdahiGYWw2G9YM206q5J03hMWHMCNMtChgJIF/JYAw+1cS6D+SAGESQJgRJloUMJLAvxJAmP0rCfQfSYAwCSDMCBMtChhJ4F8JIMz+lQT6jyRAmARaEzMOh8NgMOrq6qqqqsrKykpKSor/vUpKSkpLS8vLy6uqqurq6hoaGthsNupoJkwNUMDESkDemHE4nPr6+vz8/KSkpJcvX965c+fs2bOHDx/evXv39u3bt/17bd++fefOnfv27Tt69OiZM2du3rz59fiI169ff/r0KT8/v7a2Fo2cEqsXKHSZSkAemGEYxmQyq6urMzMz4+LiLly44Ovr6+zsbG1tbWRkZGBgoKenp62trSV0aWtr6+npGRgYGBkZmZub9+7d+4cffvD19T1x4kRUVNTHjx8LCgpoNJryTbeDg8VsHJeUFp7D4eCIRGHqEXDQvw1+EeGYMRiMvLy8mJiYkJCQ+fPnf91OHc5V599ovtmFGAIPk8lkU1NTJyen9evXX7p06dWrV8XFxa04X0mmBR8Xw7CioqJ//vnnHY4rPz9fstgxDKupqfn48WOzkXz48CEzM7Ptry7DMKygoACP3BISEuS8IJVAzDgcTmlpaWRk5NdFSo6OjvCwWQhMs/tMNPsADIdCoVhaWv7www979+5NSkrCX7RjGAabhdAYSqapBL1Fp9NDQkKmTZs2oblr4sSJfn5+kiWDwWA8fvx46tSpzUUyYdKkSRs3biwsLJQsIrm9VV9ff+TIkSlTpjT7RZMnTz558qQ8d+wjBDMMwxoaGpKTk/ft29enTx+4Q4Z4k9UsV2IegMbN39+/2RIXJiw3NzcuLu7GjRsnT548ffr0/fv3ExISysrK2og9rKys9PDwgLtlCZhxgVsSidSrVy/8hQu/xtfW1u7Zs4d3Ko1AyPy3ZDJ58ODBSUlJ/K+3NTc0ZTNnzsTzRSQSaeHChenp6ZKJToJvlz1mHA6noqIiMjLSw8MDLtQnDjDIHgDAwMBg+/bt4vtFOBxOcXFxRETEqlWr7OzsNDQ0oDIZGBg4Ozvv37//zZs3bWHZYkVFhbu7u4aGhpiShffhtra2kulKTU2Nv78/nqwBAAwYMCAxMVEC9ZLbKxiG5ebmTp8+HecXzZ8/Py0tTTLRSfBRMsaMw+EUFRWFhoaOGjVKXV0d6nGz6iLlAwCAvn37hoWFifl+DoeTk5MTHBw8bNgwuAk+f4ENADA2Np42bdrt27erqqrkJn2RCUaYiRSLeE8VwgzDsNLS0iNHjnTr1g3abin5wfk6AMDV1VV8cVtWVnb48OFevXoJLF7mRQH3fx8/fnxkZGRDQ4P4TCX0V4SZBOJVFcwwDKusrDxz5oytra18jBiPEA0NDR8fn7q6uqayh8ViRUZGjhkzRmA1Pi8EnkNXV9fHxyc9Pb2poOTgjzCTQMiqglldXV1YWJi9vb2cGVNTU7OwsNi/f7+YDoyKigo/Pz9jY2MeTk05AAA9e/YMDw8XE5oEStCiVxBmLRIXfFglMGMymS9evHBwcJBnXZGHir29/bVr18RsWfH+/fupU6fi3DVRXV3dz8+v2TNNGhoaamtra3BcLSUWYYYwEyEB2Lvg7e0N++542i8fB5lMHjt2bGxsrJh+i/DwcGhm8SQJAODu7v7p0ycRn/qvV319fWRk5B9//HEIx/X333+3aNcqhNm/Ym7Bf+W3ZnQ6/cKFC506dcLTl4pH0eE5sbyeQPGv6OjoeHp6fvnyRUyenD171sbGBmfyAAA//PDD69evxQSYlZX1008/6ejo8BLZlINEIvn4+LRobBdhJkbyTf2k5JhxOJyvMxW///57MpmMU48FsOEpKJlM1tTUNDQ0NDU1bf/tMjc3NzEx0dfX19DQgOHzHuYFYmZmtmnTJvHnPFy6dKlbt244kwcAmDx58rt375rKUS6Xm5GRMXPmTC0tLV4ymnIAALy9vVs0JQphJkbyTf2k5JjV1dUdP35czJa6TemfmpoaiUTS0dGxsLDo27evk5PTtGnTFi5cuGbNmm3btu3YsWPnzp1+fn6bNm1auXLl/PnzZ8yYMX78+JEjR9rZ2XXo0MHQ0FBDQ4NEInXt2vXYsWONjY1NZQCXy42Kiho1ahROzMhk8q+//pqdnS0mQISZGOG0yk/KjBmHw0lKShoyZAhODeYhRyKR9PT07OzsZs2a5e/vf/369Y8fP1ZWVsJFZZjQxWaz6+rqsrOz4+Pjw8LC9uzZs2TJkgkTJvTr12/y5MmRkZFiGmZcLjcrK2vJkiWampq8BDTlgOPUx48fr6+vF6MuCDMxwmmVn5QZs/r6+pCQENhEaUpxBfwBAGQyuX379rNnzz537lxKSgqNRmtpxjAYjMLCwlevXl27du3evXvia4xcLrehoeHUqVPdu3dvtrORQqF8//33cXFx4rlFmLU0y4h+XmkxwzAsPz//559/bmpehQBg8JZKpdrY2KxZsyY5OVnKQ4oxDGN9u5rNQgzDkpKSFi9ebGRkJMbwksnkLl26HDlypNlTIxBmzcpczg8oLWYsFuvly5e9e/cWo7gCpFGp1B49euzcubNFPW8yybCGhoaIiIgZM2aYmpoK99bAwxm6du26YcOG1NRUMUNwMDEIM5lkigwDUVrM6HT6n3/+ib/GSCKROnXqtH37dvkf5AWzk0ajPXv2zNfXt3///rylA/DwLjMzszFjxgQGBqakpDS7mgb1NMoQD1kFpbSYVVdXL1q0CKcpAwDo6urOmjUrJSVFfLNHVnIXGQ6LxcrNzQ0LC1u+fLmrq6uzs7OLi4ubm5ufn99XAquqqpq1YzBYZM1EircVPZUWs8LCwr59++LEjEwmd+vWLSwsDKceE51hdDo9MzPz3bt3CQkJhYWFeCwYf5KUA7Ndu3bhyT603ow/6yVzS7jejM1mv3r1Cn+NUU9Pz9PTs9muBcm+Qf5vKQFmcPU0wkxAeRobG8vLy3Nycr58+fLp06fU1NSMjIzCwsK6ujppLISEmNHp9CNHjuDJJDgM3aNHj0ePHgl8kjxvORwOi8Vi4rjEL8GGaW4RZosXL87Ozm4qZuHo5DMLRHrMoEhhZ6/4v/gVVOIwJa40whhLSkrevn17+/btY8eObdu2bfny5fPnz3d3d583b563t/e6desCAwMvX74cGxtbXFzMYDBa2vCRELPq6uqffvoJJ2ZaWlrTpk0TP+BLKHIcDicjI+P27dsXLlw4L/a6dOlSfHx8U0eYw1HyoqKiJ0+efN3nB+d4t4uLy+HDh5uKNioqqrq6mj/bFAKzhoaGxMTE8PDwm81dt2/ffvPmDZ7J03D/mHv37jUX5M27d++mpaXxL32QALOUlJTi4uK3b99eu3Zt27Ztrq6unTt3hlOLeHP6oINEIsH9Zpydnbds2XLz5s3U1NT6+nr+XBOvwBJiVlxc3L17d5yYmZmZ7d27F3+RJj7FEvza2NgYGhrar18/i+aujh07LlmyRGB6fkNDQ2Fh4YcPHyIiIk6fPu3v7+/u7t65c2ecA4ba2tpmZmZNxfzjjz9+/PiR36YpBGZ5eXkbN27s2bNn9+au3r17//LLLxkZGc1mXF5e3s6dOwcMGNBckN379u178OBB/jZISzGbNm1aaGjonj17ZsyY0aVLF96GGpArgYEofuo0NDR69+69ZMmSGzdulJWV4dRqSTDjcDgpKSlwRw2BBAnfkkikHj163L9/v1kpE/fA16J0+/btWlpa/PJqyv3DDz+8evWKl5j8/PxLly6tXbt2+vTpQ4YM6dKlS7t27WCuCH9sUz5NxQUAsLOze/HiBX8fjEJglpKSMnnyZJzbSDk7O79584Yn0qYcKSkpXl5evK2QxAgNALBs2bKsrCxeUC3FrEuXLvb29ubm5i2djgtTpa2tPXjw4MDAwNLSUjw2TRLMWCzW48ePcaZPXV3d0dExISGBJxH5O+h0+rZt23DuFTV+/HgeZhiG3b59e9CgQWQymadSTbEkmX/v3r2lwczGxqZIoutrpWvz5s146iMiexpTUlImTZrU7OQ1uKbJ2dlZ/MIiqBIpKSmenp5fl9U2K0kAwJIlSzIzM3m61CLM+FdaNRuXyAcgbCYmJgcOHMjLy+OvjPCSxO+QBLPGxsYLFy4Iz6UQmSBtbe2ZM2fm5ubyxypntzSYnTp1Cv8iGpESEO8pJWbGxsb8Zw/8ewZB8/83bNgwduxYlcVMfKbg+RWSZmlp+fvvv5eVlYm3aZJgRqfTg4KCcLZMDAwMli1bVl1dLWe0+KOTHjM8cpfsGSkxI5PJhpJesBbdbLKV0po1+9U4HyCRSH369Ll//774CbqSYEaj0TZs2NDsLlEwocbGxps3b+bvFOIHgOdmsViVlZX5+fl50l2lpaXCa8+UFTOcqiDlYwgzMQIEAJBIpJkzZ+bn54sxaJJgVldXt2zZMjzWDADQvn37oKAgHk4iHXBn5tDQUF9f3+WSXitWrPD19d2/f//Hjx8FYkGYiVGUZn9CmIkXEQBAT0/v1KlTYrb3lASzmpqaefPm4Wz+durU6eTJkwJ6L3DLZrPfvHkzduxYCoVCluKiUCh2dnYXL14UCB9hJl5RxP+KMBMvH9ih4uDgkJGR0VT/viSYVVVVzZgxA2fr2dra+vLlywJ6L3DLZrNjY2OHDRvW7PeIfwAAYG1tHRISImC+EWbi5Sb+V4SZePlAzHR0dC5duiTcYIGqLglmZWVlrq6uODGzsbEJDw8X4ErgFmEm2bhZs9kvkweUGzMAgLq6uomJibW1dc+ePXv16tW1a1djY2OcXQ88CVMoFG9v7/LycoEiXkLMMAwrLi4eP348Tsy6dOly9+5dAa4EbtsyZmfPnu3RowfsveX/y5MvHgf/iwLuvn37xsbGIsy4XG6Lxs28vb2lGTeDJsjExMTBwcHT03PLli2HDh0KDQ09ffr00aNHN2/ePGXKFHNzczwdEFABAAAjR45MTk4WWW9ssTXDMKywsHDcuHH4Mbt3754AVwK3bRYzLpcbHx/v6+vr6ur6I981ZswYCwsLPHkAALCysnJxceF7+z/O9evXZ2Zm8ucN/lkgeAiX/pm2ac0WL17MP4GrRcPTAAATE5Px48fv2rXr0aNHmZmZFRUVdXV1dDq9oaGBRqNVVFS8f//+t99+s7GxwW/WrKysHj16xF9icv+9EGb/0UMAAP8sELhdT0ZGxvv37/kPj7179+64ceNwTiuZPn36w4cP+V/nd+fm5gqMdiDM/pMlom4AAIsXL+Y/UaRFmGloaLi5uT1+/Fj8dPbc3Nw1a9YYGxvjsShqamra2tqhoaEi+xsJx8zGxubWrVv/Ui36f1u2ZiJT3KKFMMRthypKA2Xv12atmcSY6enpBQQENLtZBoZhCQkJ3333HZ75X7AWumXLFpE7tUmCWUlJyYQJE/AgDrv+rl69KlJZeZ4IM54ouFwusmbNFhVSWjOIWbP7DnK5XBaLFRQUZGZm1mySIGbu7u41NTX8uQndLcYM6sG0adNwYmZlZXXmzBnhiPl9EGb80mgRZnBPLqpEF562JdQe4UNxW33qsDSVRvyYcbnc9PT0AQMG4BwldnR0rKys5M9N6JYEs5qamtmzZ+OM2NLSMjg4WDhifh+EGb808GMGANDX158r0fXzzz8PHDgQZ1mpypix2ezp06fjPC+hV69eZWVl/LkJ3ZJgVldXt3jxYpxloYmJiZ+fn/iVAhCz4cOH4zHNYp6R+fC0sLygTxtpmwEAOnfunJqa+rnl17t371atWoUwayqL+f3Xr19vaGgoRvHgT3Bqoci6qCSY0Wi0tWvX4uzoNDQ0XLFihch2Ie9LOBxOYmLivHnzbGxsrIWuzp07m5qaUqlUPN8p21kgvBQKONoOZra2tiLHQwUSLHxbU1Pj7++PMBOWjLDP4cOH8TTP4ORGkVv9SoIZnU7fs2cPTmumq6s7d+7coqIi4dTzfDAMq6qqevz48YkTJ/4Qug4dOuTl5YXzSFuEGU+q4h0IM5FmR1hoGIZduHDB0tKy2VJeTU1NU1MzJydHuOCTBLPGxsazZ8/itGYaGhrff/+9wO4aIj+GxWI1NDTQha6ysrKTJ09aWVk1+50qWGlE1gzqUovGzVrUBYJh2I0bNzp27Nis+qmpqVGp1KysLNlgxmKxoqKicG5SQCaT+/Xr9+zZM2G0cPrU1dWdO3euc+fOzX4nwgynSLlcLrJmOK0Zl8u9c+dOp06dmlU/iFl2drZsMINb7ujq6uKs2Xfs2DE0NJR/PhF+beByuQizpjIYAICsGdQl4qwZl8u9e/cunsqUjDHjcrklJSX4z4LR19dfsmSJwJQi/KQhzBBmAhKQ2/A0l8vFMOzWrVs4rZmmpmZubq5srBmscnh6euKxZmpqahQKZfjw4eJPYRdDHcJMQMl4t8ia8dSGOGvWoraZrq6uzHoauVxuY2PjmTNn8IxQQ50wNzffs2dPU4veeMIS6UCY8bgScCDMeApDKGYXL17s0KGDgPCFb+HEf5FTJSXpaeRyufDUafyTl9XV1R0cHN6/f8+TC34Hwkw4R6EPwoynRYRiFhIS0r59+6ZygecPe+BE9qxIiBmXyy0rK3N0dMRZbwQAmJqabt26taqqiicanA6EGS8jBRwIM54KEYcZl8sNDAw0NTUVEL7wLQDA3t6+vLyclyqeQ3LM6urqNm3ahGdyBkyQurr64MGDb968KX5HO17KeA6EmXCOQh+EGU9JCMVszZo1OCdbjRkzRmZTh+G3NTY23rp1y8LCAr9B09PTc3V1ffTokfgpjjzZQQfCTNExc3Jyio+PF8hW4dsWbVIgtxn6HA5n5syZOKcOy3IhDBQQh8P59OnTmDFjcGIGl1To6+v/8MMPt27dwnMSj3JgtmDBgry8PGGtasqnRTP0FWLczMHB4cmTJ019L8+/bWJWUlIydOhQPFMLAQBr166tq6vjfRHPIXmlkcvlfj2YC+cRELzyGACgra09cuTIo0ePJiQk4DnuWaGtGYlEmjRpUlpamvBYCi8PBByKghk8EYaXs005AAD9+vW7fv16sxJog5hhGHb58mWcM60oFEpwcLBI+yEVZiwWKyYmxtbWFr9BgzZNQ0PD1tZ21qxZe/fuvXXr1vv37/Pz82tqahobG5lMZmNjI51Or6mpKS4uTktLe/78+bp163C2QeUzdTg7O/unn37S1tZuSrd4/gCA3r17R0ZG4h/MUAjMPn/+PGPGDJxlvJWVVWBgoMhinlfEYBj24cOHWbNm4WntSzk8/fUwZ39//+LiYl7sTTlyc3OnTZuGJ6PV1NSMjIyuX78usutBKswwDPva4Nu+fXuLMIMqCADQ0tLq1KnToEGDJk6cOGfOnK/b3Pn4+KxcuXL58uXLli1bvHixh4eHm5ubi4tLt27d8OzHILc5jYWFhXPnztXR0eHh1JQDAKCjo7N06dK0tDScLVKFwCw9PX3u3Ll4MFNTU9PR0XFzc3v37p1Ig4ZhWH19fVxc3MqVK7t27YpnMFZKzKhU6qhRo0JDQ4uKisTMAaysrNy7d6+lpSXOJPXo0SMmJkbkbCepMONyuWw2OykpaciQIXiSIqyLcKd/eOgohUKhUqnq6upUKpV/l294sJjwu8I+csOsurra29tbT09POA3CPgAACwuLpUuX3rp1KzExMSsrC57IkZ2dnZaWlpubK2DoFAKznJycX3/9FecqDQCApaWlt7d3RETEly9f8vPzi4qKCgoKsrKyEhISbt++7e/vP378eFNTU5xaJCVmcAvUPn36LFy48NixY48fP05OTs7Ozs7Pzy8oKMjLy8vIyIiJidm5c2fv3r1xTpEHADg7O6enp4vkVlrMuFwujUY7duwY7HKUwKwJ66XEPnLD7GvNdsOGDV8XhuNPqr6+/qBBg6ZPn75o0aIVK1b4+PgsXrx4zpw5/75hnQAACXVJREFUq1evTkxM5C8CFQKz0tLSHTt24MRMTU2NRCIZGxuPHDly7ty5X5f5rl27duXKlQsXLpw8efKgQYPMzMwoFAp+5ZESM5hrAABNTU1ra+vvvvvOzc1t8eLFy5cvX7lypY+Pj6enp7Ozc4cOHfB/IIVC+eWXX0T25nO5XBlgxuFw0tPT58+fD48zxa95Mn9SbphhGHbixIkuXbrg1wzYKKVSqbq6uoaGhgYGBrq6upqamra2tnfv3uU3aAqBGY1GO3PmTEsPByaRSFpaWoaGhsbGxkZGRjo6OpCuFokRSlKaDn0BxYPbFsF8MTIyMjAw0NLSwmlXYVCwBXTx4kX+fORv78kAMy6Xy2Awnj59OmLECJxHeAp8p6xu5YYZ3I14+PDhLcoMkZ/ZoUOH69ev8++hqRCYcTicp0+fdu7cuaWEiBRCSz1lYs1aGqmY5wEAvXr1+vz5s8gao2ysGaS2rq4uLCxs2LBhrUiaPDGrqqry8PDA0wsiJnvU1NQUFDMul5uRkeHh4YEwg8Zw586dYja8kY01g8tyqqurL1++PGTIkNYiTZ6YcTicixcvwlMsxIMk/lfFxay+vv7ixYvt2rUT/4FE/NqmrBkAYNCgQUlJSU2ZMllaM0haZWUlJK2ltXaZZAYAwMbG5s8//xToOJb4fDP+6rWwOzs728PDA2d/Y1MfqLiYYRiWlJQ0efJk/P0ETQmhpf5tBzMAgJGR0e+//y7GlMkYM0haVVXVzZs3p02bZmpqKs8aBQCAQqEMGjTo5s2bAkgQhBmDwbh27drgwYPxjKg2pUmKixmXy62qqgoNDbW1tZW+jSogH/GaIxlmcPRIfMgCyRB/CwcGZs2alZKSIn5QVGaVRp5mw9HG+Pj4bdu22dnZweO8xCdXyl9hFDo6Og4ODsHBwVlZWbzEQAdBmGEYVlRUtH//fml6AhQaMzabnZ6evn79egMDA1mpLywujY2N27Vr11SYkmFmaGg4ZMgQc3NzmegkDMTJySkqKkrkBCt+JZQ9ZjB0FouVn59/9+7dBQsWWFhYEFSHBACQyWRdXd1+/fpt2LDhyZMnJSUlwuUKxExTU7NZnoUPXuIXlrCbw+Hk5eXt3bu3e/fuOMcxBdKg0JhxuVwmk5mUlLR69WoTExOck0IEJMC7hYAZGRmNGzdu586dYqqjkmFma2t74MCBI0eOODo66uvr45/2wEshzwHtmLOzc2RkJI1GE2ikCOsJUZjBmJhMZmpq6qlTpxYsWDBw4EBTU1PJxkl4nwfHTKD119PT6969+8SJE7du3Xr//v28vDxhwGAy6HT67t27DQwM+MMR6QYAuLq6vn37VlhSYnwKCwv//PPPiRMnmpqatqj7BwDQsWPHmzdv8nfoV1ZWzps3D0+hQCKRevbs2Wwei0x5TU1NQEAAnnKdRCINHjw4KSlJZDjw2JTU1FR/f/+hQ4fi3O+MX/gwDZqaml26dJk0adK+fftiY2NzcnI2bNjQlBAAAEuXLuWvtmAYVlBQ4ObmJsYADhkyJDIysqKiIjo6et26dQ4ODrBoaOoV/kRCN0wqiUSytrb29PSMiopqaqBMQFbEYgZbazQaLSUl5d69e0FBQYsWLRoxYoS5uTmPN5h03l/+b+N58hxkMllPT8/Ozs7NzW3r1q0XL16Mj48vLCwUeUQi71NZLFZkZKSHh4ejo6OD2MvFxSUoKKhF61Z4fT/Pnz8PDAycOnVqx44doWXjJbspB1wW9Pfff/Onn06nHzlyZOzYsSNHjhSbWIfvvvtu48aNvM9skaOxsfGvv/5ycXFpNhYnJ6c1a9aI3EmGFyOsvNy+fXvdunUjR440NDQU/mRezvL/RCaTTUxMRo0a5evre+rUqfj4+LKyMg6Hw2KxwsPDJ06cOODbNXDgwMGDBw8dOnTYsGHDhw8fM2ZMaGhodXU1LwFwo8EDBw64uLiIFBqUVVpaGofDYTKZOTk5Dx8+3Lt376xZs2xtbeHMCv6EiXRTKBRra2t3d/cTJ058/PiRv3DkT4mwm3DMYJQYhjU2NpaXl6elpb18+fLmzZsHDx5ctmzZ+PHj7ezsTE1NNTU11b9d/EcIQR9tbe0OHToMGTLkp59+2rZt2/nz56OjoxMTEwsLC2k0WlMWjP9TMQyrrq5OTk6Oj4+PFXu9fv06Ly9P5CRr/gBFuhkMRllZGZykt2fPnjlz5gwbNqxjx476+voaGhrwW7S0tMzNzQcMGDBz5kw/P7+rV6/Gx8fX1NTwWyQOh5Ofn//q1SuxKf2/H+Pi4rKzs0UmpllPOO379evXzcby999/f/nypVmZYBhGp9Nzc3Nfvnx55syZVatWjR071sbGRldXVyBn1dXV9fX1u3fvPmnSpK1bt169ejUuLi4rK6umpoZ/0ll5efnbt2+ffruePXv2/PnzmG/Xy5cvX716VVhYKNCBzuFwcnNzm/qiuLi49PR0fjAaGxtLS0sTExMjIiKOHTu2ZMmSr/OJO3bsqKOjAxPM+2tkZNS7d+/p06cHBATcvXv306dPVVVVeBSPlwtywowXH3RwOJza2trMzMy3b99GR0ffvn37woULJ06cCA4OPnDgwN69e/fs2RMYGBgcHHzixImLFy/eu3fvxYsXycnJJSUlzea3QFzyv+VwOBUVFSkpKTExMX/99de1a9fOnTt36tSp06dPX7x48c6dO8+ePUtMTCwtLW1RVsn/QySLEcOwhoYGqPEPHz68cuVKSEhIcHBwUFDQ/v37Dx48eOLEiStXrkRGRn748KG4uJjfkksWo/Rv0Wi0jIyMuLi4+/fvX7p06c8//zxy5Mjhw4ePHTt26tSpGzduREdHf/z4saKiQrIsax3MBOSCYRiLxaLT6XV1ddXV1ZWVlRUVFVVVVbW1tXQ6ncVi8Rf2Au+2/VtYS2F8uxT9WySQNpvNbmhoqK2trf52wTyVTFkliL2lr0BVbGhoqPt21dfXMxgMAbPZ0jBlP24mQQrQK0gCSi+BNmHNlF7K6ANVXAIIMxVXAPT58pAAwkweUkZxqLgEEGYqrgDo8+UhAYSZPKSM4lBxCSDMVFwB0OfLQwIIM3lIGcWh4hJAmKm4AqDPl4cEEGbykDKKQ8UlgDBTcQVAny8PCSDM5CFlFIeKSwBhpuIKgD5fHhJAmMlDyigOFZcAwkzFFQB9vjwkgDCTh5RRHCouAYSZiisA+nx5SABhJg8pozhUXAIIMxVXAPT58pDA/wMFxnCFYejMrQAAAABJRU5ErkJggg==;" vertex="1" parent="1">
          <mxGeometry x="740.1" y="476.72" width="40.28" height="40" as="geometry" />
        </mxCell>
        <mxCell id="Gtlh_jwDA_kZR49dkIid-16" value="" style="endArrow=none;dashed=1;html=1;dashPattern=1 3;strokeWidth=2;rounded=0;" edge="1" parent="1">
          <mxGeometry width="50" height="50" relative="1" as="geometry">
            <mxPoint x="550" y="410" as="sourcePoint" />
            <mxPoint x="550" y="300" as="targetPoint" />
          </mxGeometry>
        </mxCell>
        <mxCell id="Gtlh_jwDA_kZR49dkIid-17" value="" style="endArrow=none;dashed=1;html=1;dashPattern=1 3;strokeWidth=2;rounded=0;" edge="1" parent="1">
          <mxGeometry width="50" height="50" relative="1" as="geometry">
            <mxPoint x="550" y="300" as="sourcePoint" />
            <mxPoint x="690" y="300" as="targetPoint" />
          </mxGeometry>
        </mxCell>
        <mxCell id="Gtlh_jwDA_kZR49dkIid-19" value="" style="endArrow=none;dashed=1;html=1;dashPattern=1 3;strokeWidth=2;rounded=0;" edge="1" parent="1">
          <mxGeometry width="50" height="50" relative="1" as="geometry">
            <mxPoint x="690" y="410" as="sourcePoint" />
            <mxPoint x="690" y="300" as="targetPoint" />
          </mxGeometry>
        </mxCell>
        <mxCell id="Gtlh_jwDA_kZR49dkIid-22" value="" style="endArrow=none;dashed=1;html=1;dashPattern=1 3;strokeWidth=2;rounded=0;" edge="1" parent="1">
          <mxGeometry width="50" height="50" relative="1" as="geometry">
            <mxPoint x="550" y="410" as="sourcePoint" />
            <mxPoint x="690" y="410" as="targetPoint" />
          </mxGeometry>
        </mxCell>
        <mxCell id="Gtlh_jwDA_kZR49dkIid-27" value="&lt;font style=&quot;font-size: 10px;&quot;&gt;User web browser&lt;/font&gt;&lt;div&gt;&lt;font style=&quot;font-size: 10px;&quot;&gt;http://ce5-group2-food.sctp-sandbox.com&lt;/font&gt;&lt;/div&gt;" style="text;strokeColor=none;align=center;fillColor=none;html=1;verticalAlign=middle;whiteSpace=wrap;rounded=0;" vertex="1" parent="1">
          <mxGeometry x="90" y="404.5" width="210" height="30" as="geometry" />
        </mxCell>
        <mxCell id="Gtlh_jwDA_kZR49dkIid-34" value="" style="sketch=0;points=[[0,0,0],[0.25,0,0],[0.5,0,0],[0.75,0,0],[1,0,0],[0,1,0],[0.25,1,0],[0.5,1,0],[0.75,1,0],[1,1,0],[0,0.25,0],[0,0.5,0],[0,0.75,0],[1,0.25,0],[1,0.5,0],[1,0.75,0]];outlineConnect=0;fontColor=#232F3E;fillColor=#ED7100;strokeColor=#ffffff;dashed=0;verticalLabelPosition=bottom;verticalAlign=top;align=center;html=1;fontSize=12;fontStyle=0;aspect=fixed;shape=mxgraph.aws4.resourceIcon;resIcon=mxgraph.aws4.eks;" vertex="1" parent="1">
          <mxGeometry x="660" y="300" width="28" height="28" as="geometry" />
        </mxCell>
      </root>
    </mxGraphModel>
  </diagram>
  <diagram id="Qd-g-BEjAtBFIEuPB306" name="Page-2">
    <mxGraphModel dx="2073" dy="1132" grid="1" gridSize="10" guides="1" tooltips="1" connect="1" arrows="1" fold="1" page="1" pageScale="1" pageWidth="1100" pageHeight="850" math="0" shadow="0">
      <root>
        <mxCell id="0" />
        <mxCell id="1" parent="0" />
      </root>
    </mxGraphModel>
  </diagram>
</mxfile>
